<svg xmlns="http://www.w3.org/2000/svg" style="fill:none;stroke:none;fill-rule:evenodd;clip-rule:evenodd;stroke-linecap:round;stroke-linejoin:round;stroke-miterlimit:1.5" viewBox="36.45 132 747.32 386"><style data-font-family="Roboto">@import url(https://fonts.googleapis.com/css2?family=Roboto:wght@400;700&amp;display=block);.fillAsStrokeColor-v63ek81dfik8z{fill:#3cc583}.fillAsStrokeColor-v63ek81dfik90{fill:#de8431}.fillAsStrokeColor-v63ek81dfik91{fill:#e55753}</style><g id="items" style="isolation:isolate"><g id="blend" style="mix-blend-mode:normal"><g id="g-root-1.cu_sy_m8leug1ejidc7-fill" data-item-order="-199163" transform="translate(338.15 123)"><path id="1.cu_sy_m8leug1ejidc7-fill" fill="#f4ffdc" stroke="none" d="M13.199 190.029a23.999 23.999 0 0 0 0 23.942l96.687 168A24 24 0 0 0 130.688 394h193.243a24 24 0 0 0 20.801-12.029l96.687-168a23.995 23.995 0 0 0 0-23.942l-96.687-168A24 24 0 0 0 323.931 10H130.687a24 24 0 0 0-20.8 12.029l-96.688 168Zm55.945 36.04a24.001 24.001 0 0 0 0 23.862l68.75 120A24.002 24.002 0 0 0 158.719 382h137.18a24.002 24.002 0 0 0 20.825-12.069l68.75-120a24.001 24.001 0 0 0 0-23.862l-68.75-120A24.001 24.001 0 0 0 295.899 94h-137.18a24.001 24.001 0 0 0-20.825 12.07l-68.75 119.999Z"/></g><g id="g-root-2.cu_sy_htedt41ejiayq-fill" data-item-order="-199153" transform="translate(394.12 207)"><path id="2.cu_sy_htedt41ejiayq-fill" fill="#fff2e5" stroke="none" d="M13.175 142.069a24.001 24.001 0 0 0 0 23.862l68.75 120A24.001 24.001 0 0 0 102.75 298h137.18a24.002 24.002 0 0 0 20.825-12.069l68.75-120a24.001 24.001 0 0 0 0-23.862l-68.75-120A24.001 24.001 0 0 0 239.93 10H102.75a24 24 0 0 0-20.825 12.07l-68.75 119.999Zm55 36a24.001 24.001 0 0 0 0 23.862l41.25 72A24 24 0 0 0 130.25 286h82.18a24.002 24.002 0 0 0 20.825-12.069l41.25-72a24.001 24.001 0 0 0 0-23.862l-41.25-72A24.001 24.001 0 0 0 212.43 94h-82.18a24 24 0 0 0-20.825 12.07l-41.25 71.999Z"/></g><g id="g-root-3.cu_sy_8xrdk81ejibrh-fill" data-item-order="-199143" transform="translate(449.12 291.004)"><path id="3.cu_sy_8xrdk81ejibrh-fill" fill="#ffeceb" stroke="none" d="M13.175 117.931a24 24 0 0 1 0-23.862l41.25-72A24 24 0 0 1 75.25 10h82.18a24.001 24.001 0 0 1 20.825 12.07l41.25 72a24 24 0 0 1 0 23.861l-41.25 72A24.002 24.002 0 0 1 157.43 202H75.25a24.001 24.001 0 0 1-20.825-12.069l-41.25-72Z"/></g><g id="g-root-tx_78_dikodk1ejpbm7-fill" data-item-order="0" transform="translate(531.16 153.004)"><text id="tx_78_dikodk1ejpbm7-fill" fill="#44e095" stroke="none" font-family="Roboto, sans-serif" font-size="20" style="font:20px Roboto,sans-serif;white-space:pre"><tspan x="15.43" y="34" dominant-baseline="ideographic">78%</tspan></text></g><g id="g-root-tx_grandese_1q87w4o1ejiars-fill" data-item-order="0" transform="translate(27.16 183.004)"><text id="tx_grandese_1q87w4o1ejiars-fill" fill="#3cc583" stroke="none" font-family="Roboto, sans-serif" font-size="20" font-weight="bold" style="font:700 20px Roboto,sans-serif;white-space:pre"><tspan x="18.2" y="34" dominant-baseline="ideographic">Grandes entreprises</tspan></text></g><g id="g-root-tx_entrepri_4hxvfs1ejicjr-fill" data-item-order="0" transform="translate(15 219.375)"><text id="tx_entrepri_4hxvfs1ejicjr-fill" fill="#484848" stroke="none" font-family="Roboto, sans-serif" font-size="15" style="font:15px Roboto,sans-serif;white-space:pre"><tspan x="21.45" y="28" dominant-baseline="ideographic">Entreprises de 1001 à 10000 </tspan><tspan x="147.67" y="46" dominant-baseline="ideographic">employés</tspan></text></g><g id="g-root-tx_34_mdl7jc1ejpdz9-fill" data-item-order="0" transform="translate(531.16 237.008)"><text id="tx_34_mdl7jc1ejpdz9-fill" fill="#de8431" stroke="none" font-family="Roboto, sans-serif" font-size="20" style="font:20px Roboto,sans-serif;white-space:pre"><tspan x="15.43" y="34" dominant-baseline="ideographic">34%</tspan></text></g><g id="g-root-tx_entrepri_1cwrdrc1ejiccq-fill" data-item-order="0" transform="translate(111.162 291.004)"><text id="tx_entrepri_1cwrdrc1ejiccq-fill" fill="#de8431" stroke="none" font-family="Roboto, sans-serif" font-size="20" font-weight="bold" style="font:700 20px Roboto,sans-serif;white-space:pre"><tspan x="13.61" y="34" dominant-baseline="ideographic">Entreprises </tspan><tspan x="23.27" y="58" dominant-baseline="ideographic">moyennes</tspan></text></g><g id="g-root-tx_entrepri_1lsee081ejibk1-fill" data-item-order="0" transform="translate(51 339.375)"><text id="tx_entrepri_1lsee081ejibk1-fill" fill="#484848" stroke="none" font-family="Roboto, sans-serif" font-size="15" style="font:15px Roboto,sans-serif;white-space:pre"><tspan x="19.19" y="28" dominant-baseline="ideographic">Entreprises de 26 à 100 </tspan><tspan x="111.67" y="46" dominant-baseline="ideographic">employés</tspan></text></g><g id="g-root-tx_27_qtepns1ejpd6z-fill" data-item-order="0" transform="translate(531.16 375.004)"><text id="tx_27_qtepns1ejpd6z-fill" fill="#fd6a65" stroke="none" font-family="Roboto, sans-serif" font-size="20" style="font:20px Roboto,sans-serif;white-space:pre"><tspan x="15.43" y="34" dominant-baseline="ideographic">27%</tspan></text></g><g id="g-root-tx_petitese_18gxvmw1ejid50-fill" data-item-order="0" transform="translate(39.16 423.004)"><text id="tx_petitese_18gxvmw1ejid50-fill" fill="#e55753" stroke="none" font-family="Roboto, sans-serif" font-size="20" font-weight="bold" style="font:700 20px Roboto,sans-serif;white-space:pre"><tspan x="17.59" y="34" dominant-baseline="ideographic">Petites entreprises</tspan></text></g><g id="g-root-tx_entrepri_1cwrdrc1ejiccr-fill" data-item-order="0" transform="translate(63 459.375)"><text id="tx_entrepri_1cwrdrc1ejiccr-fill" fill="#484848" stroke="none" font-family="Roboto, sans-serif" font-size="15" style="font:15px Roboto,sans-serif;white-space:pre"><tspan x="17.67" y="28" dominant-baseline="ideographic">Entreprises jusqu'à 25 </tspan><tspan x="99.67" y="46" dominant-baseline="ideographic">employés</tspan></text></g><g id="g-root-1.Polygon_sy_qoewyw1ejicjy-stroke" data-item-order="-199164" transform="translate(255.16 159.004)"><path id="1.Polygon_sy_qoewyw1ejicjy-stroke" fill="none" stroke="#3cc583" stroke-linecap="round" stroke-linejoin="round" stroke-miterlimit="4" stroke-width="2" d="M10 82h17.554a6 6 0 0 0 5.183-2.977l17.5-30a6 6 0 0 0 0-6.046l-17.5-30A6 6 0 0 0 27.553 10H10"/></g><g id="g-root-1.cu_sy_m8leug1ejidc7-stroke" data-item-order="-199163" transform="translate(338.15 123)"><path id="1.cu_sy_m8leug1ejidc7-stroke" fill="none" stroke="#92bd39" stroke-linecap="round" stroke-linejoin="round" stroke-miterlimit="4" stroke-width="2" d="M13.199 190.029a24 24 0 0 0 0 23.942l96.687 168A24 24 0 0 0 130.688 394H323.93a24 24 0 0 0 20.8-12.029l96.688-168a24 24 0 0 0 0-23.942l-96.687-168A24 24 0 0 0 323.93 10H130.688a24 24 0 0 0-20.802 12.029l-96.687 168Zm55.945 36.04a24 24 0 0 0 0 23.862l68.75 120A24 24 0 0 0 158.72 382h137.18a24 24 0 0 0 20.825-12.07l68.75-120a24 24 0 0 0 0-23.86l-68.75-120A24 24 0 0 0 295.899 94H158.72a24 24 0 0 0-20.825 12.07l-68.75 120Z"/></g><g id="g-root-1.line_sy_m8leug1ejidc8-stroke" data-item-order="-199158" transform="translate(297.16 195)"><g id="1.line_sy_m8leug1ejidc8-stroke" fill="none" stroke="#3cc583" stroke-linecap="round" stroke-linejoin="round" stroke-miterlimit="4" stroke-width="2"><path d="M10 10h106"/><path d="M7 10a3 3 0 1 0 6 0 3 3 0 0 0-6 0ZM113 10a3 3 0 1 0 6 0 3 3 0 0 0-6 0Z" class="fillAsStrokeColor-v63ek81dfik8z"/></g></g><g id="g-root-2.Polygon_sy_htedt41ejiayp-stroke" data-item-order="-199154" transform="translate(255.16 279.004)"><path id="2.Polygon_sy_htedt41ejiayp-stroke" fill="none" stroke="#de8431" stroke-linecap="round" stroke-linejoin="round" stroke-miterlimit="4" stroke-width="2" d="M10 82h17.554a6 6 0 0 0 5.183-2.977l17.5-30a6 6 0 0 0 0-6.046l-17.5-30A6 6 0 0 0 27.553 10H10"/></g><g id="g-root-2.cu_sy_htedt41ejiayq-stroke" data-item-order="-199153" transform="translate(394.12 207)"><path id="2.cu_sy_htedt41ejiayq-stroke" fill="none" stroke="#de8431" stroke-linecap="round" stroke-linejoin="round" stroke-miterlimit="4" stroke-width="2" d="M13.175 142.07a24 24 0 0 0 0 23.86l68.75 120A24 24 0 0 0 102.75 298h137.18a24 24 0 0 0 20.825-12.07l68.75-120a24 24 0 0 0 0-23.86l-68.75-120A24 24 0 0 0 239.93 10H102.75a24 24 0 0 0-20.825 12.07l-68.75 120Zm55 36a24 24 0 0 0 0 23.86l41.25 72A24 24 0 0 0 130.25 286h82.18a24 24 0 0 0 20.825-12.07l41.25-72a24 24 0 0 0 0-23.86l-41.25-72A24 24 0 0 0 212.43 94h-82.18a24 24 0 0 0-20.825 12.07l-41.25 72Z"/></g><g id="g-root-2.line_sy_8xrdk81ejibrf-stroke" data-item-order="-199148" transform="translate(297.16 315)"><g id="2.line_sy_8xrdk81ejibrf-stroke" fill="none" stroke="#de8431" stroke-linecap="round" stroke-linejoin="round" stroke-miterlimit="4" stroke-width="2"><path d="M10 10h114"/><path d="M7 10a3 3 0 1 0 6 0 3 3 0 0 0-6 0ZM121 10a3 3 0 1 0 6 0 3 3 0 0 0-6 0Z" class="fillAsStrokeColor-v63ek81dfik90"/></g></g><g id="g-root-3.Polygon_sy_8xrdk81ejibrg-stroke" data-item-order="-199144" transform="translate(255.16 399.004)"><path id="3.Polygon_sy_8xrdk81ejibrg-stroke" fill="none" stroke="#e55753" stroke-linecap="round" stroke-linejoin="round" stroke-miterlimit="4" stroke-width="2" d="M10 82h17.554a6 6 0 0 0 5.183-2.977l17.5-30a6 6 0 0 0 0-6.046l-17.5-30A6 6 0 0 0 27.553 10H10"/></g><g id="g-root-3.cu_sy_8xrdk81ejibrh-stroke" data-item-order="-199143" transform="translate(449.12 291.004)"><path id="3.cu_sy_8xrdk81ejibrh-stroke" fill="none" stroke="#e55753" stroke-linecap="round" stroke-linejoin="round" stroke-miterlimit="4" stroke-width="2" d="M13.175 117.93a24 24 0 0 1 0-23.86l41.25-72A24 24 0 0 1 75.25 10h82.18a24 24 0 0 1 20.825 12.07l41.25 72a24 24 0 0 1 0 23.86l-41.25 72A24 24 0 0 1 157.43 202H75.25a24 24 0 0 1-20.825-12.07l-41.25-72Z"/></g><g id="g-root-3.line_sy_4hxvfs1ejicjq-stroke" data-item-order="-199138" transform="translate(297.16 435)"><g id="3.line_sy_4hxvfs1ejicjq-stroke" fill="none" stroke="#e55753" stroke-linecap="round" stroke-linejoin="round" stroke-miterlimit="4" stroke-width="2"><path d="M10 10h176"/><path d="M7 10a3 3 0 1 0 6 0 3 3 0 0 0-6 0ZM183 10a3 3 0 1 0 6 0 3 3 0 0 0-6 0Z" class="fillAsStrokeColor-v63ek81dfik91"/></g></g><g id="g-root-male_m7cgo81ejpblx-stroke" data-item-order="0" transform="translate(231.162 170.988)"><path id="male_m7cgo81ejpblx-stroke" fill="none" stroke="#3cc583" stroke-linecap="round" stroke-linejoin="round" stroke-miterlimit="4" stroke-width="2" d="M14.36 15a4 4 0 1 0 7.999 0 4 4 0 0 0-8 0M25 28.008a7 7 0 1 0-14-.01v3h3l.82 8.2a2 2 0 0 0 1.99 1.799h2.39a2 2 0 0 0 2-1.8l.8-8.235M45.636 15a4 4 0 1 0 8 0 4 4 0 0 0-8 0m-2.64 13.008a7 7 0 1 1 14-.01v3h-3l-.82 8.2a2 2 0 0 1-2 1.799h-2.38a2 2 0 0 1-2-1.8l-.8-8.235M26.998 19.999a7 7 0 1 0 13.999 0 7 7 0 0 0-13.999 0m.094 1.154a9.265 9.265 0 0 0 6.906-3.206 9.263 9.263 0 0 0 6.903 3.2m-2.47 10.28-4.433 6.982-4.396-7.01m4.396-1.401a7.6 7.6 0 0 1 7.399 5.835l3.6 11.163h-5.914l-1.772 8.411a2 2 0 0 1-1.958 1.588h-2.755a2 2 0 0 1-1.956-1.588l-1.774-8.41h-5.87l3.6-11.164a7.6 7.6 0 0 1 7.4-5.835Z"/></g><g id="g-root-fema_144v8141ejjpc8-stroke" data-item-order="0" transform="translate(231.162 290.984)"><path id="fema_144v8141ejjpc8-stroke" fill="none" stroke="#de8431" stroke-linecap="round" stroke-linejoin="round" stroke-miterlimit="4" stroke-width="2" d="M20.385 39.969h-2.974a2 2 0 0 1-1.974-1.686l-.677-4.24h-3.784l2.838-8.267c.946-2.84 2.117-4.731 4.731-4.731s3.784 1.892 4.73 4.731l.976 2.926m-9.735-13.657a4 4 0 1 0 7.999 0 4 4 0 0 0-8 0M47.61 39.97h2.974a2 2 0 0 0 1.974-1.686l.678-4.24h3.783l-2.837-8.267c-.946-2.84-2.118-4.731-4.732-4.731-2.614 0-3.784 1.892-4.73 4.731l-.98 2.936m1.74-13.667a4 4 0 1 0 8 0 4 4 0 0 0-8 0M27.978 46.95v-8.499m11.999 8.5v-8.5m-11.999 5.592h11.999m-6 12.906v-8.907m0-18.092v8m3.16 18.997a2 2 0 0 0 2-1.834l.848-8.165h2a2 2 0 0 0 2-2V39.95c0-5.522-4.477-9.999-10-9.999-5.522 0-9.998 4.477-9.998 9.999v5a2 2 0 0 0 2 2h2l.845 8.164a2 2 0 0 0 2 1.834ZM26.978 19.951a7 7 0 1 0 13.999 0 7 7 0 0 0-13.999 0m.796-3.242a11.959 11.959 0 0 0 8.2 3.242 11.945 11.945 0 0 0 4.919-1.052"/></g><g id="g-root-fema_18gxvmw1ejid51-stroke" data-item-order="0" transform="translate(231.162 410.98)"><path id="fema_18gxvmw1ejid51-stroke" fill="none" stroke="#e55753" stroke-linecap="round" stroke-linejoin="round" stroke-miterlimit="4" stroke-width="2" d="M29.598 47.796c-1-1.6-1.4-3.4-1.4-5.2v-2.199c0-4-3.2-7.4-7.2-7.4-3.999 0-7.398 3-7.598 7.2V42.597c0 1.8-.4 3.6-1.4 5.2m1.4-6.2c2.8 0 5.6-1.2 7.399-3.4 1.8 2.2 4.6 3.4 7.4 3.4m-.8 0c-.2 3.6-3.2 6.4-6.8 6.2-3.4-.2-6-2.8-6.2-6.2m16.199 15.398c-2.8-5.4-9.4-7.599-14.799-4.8-2 1-3.8 2.8-4.8 4.8m44.996-9.199c-1-1.6-1.4-3.4-1.4-5.2v-2.199c0-4-3.2-7.4-7.199-7.4-4 0-7.399 3.2-7.399 7.2V42.597c0 1.8-.4 3.6-1.4 5.2m1.2-6.2c2.8 0 5.6-1.2 7.4-3.4 1.8 2.2 4.599 3.4 7.399 3.4m-1 0c-.2 3.6-3.2 6.4-6.8 6.2-3.4-.2-6-2.8-6.2-6.2m16.4 15.398c-2.8-5.4-9.4-7.599-14.8-4.8-1.999 1-3.799 2.8-4.799 4.8m3.4-27.597c-4-3.2-9.6-3.2-13.599 0m1.2-15.198c2 2.2 4.8 3.4 7.8 3.4 1.4 0 3-.2 4.199-.8m-12.799.8a6.4 6.4 0 1 0 12.799 0 6.4 6.4 0 0 0-12.799 0"/></g></g></g></svg>