<svg xmlns="http://www.w3.org/2000/svg" style="fill:none;stroke:none;fill-rule:evenodd;clip-rule:evenodd;stroke-linecap:round;stroke-linejoin:round;stroke-miterlimit:1.5" viewBox="48 120 626 242"><style data-font-family="Roboto">@import url(https://fonts.googleapis.com/css2?family=Roboto:wght@400;700&amp;display=block);</style><g id="items" style="isolation:isolate"><g id="blend" style="mix-blend-mode:normal"><g id="g-root-1.bubble-1_fr_93ecl41gr6m81-fill" data-item-order="-225782" transform="translate(39 111)"><path id="1.bubble-1_fr_93ecl41gr6m81-fill" fill="#fff8b6" stroke="none" d="M34 22c-6.627 0-12 5.373-12 12H10c0-13.255 10.745-24 24-24v12Zm144 0V10H34v12h144Zm0-12c13.255 0 24 10.745 24 24h-12c0-6.627-5.373-12-12-12V10Zm24 24v84h-12V34h12ZM10 118V34h12v84H10Zm12 0c0 6.627 5.373 12 12 12v12H10v-24h12Zm168 0c0 6.627-5.373 12-12 12v12h24v-24h-12Zm-96 12H34v12h144v-12h-60l-9.172 9.172a4 4 0 0 1-5.656 0L94 130Z"></path></g><g id="g-root-1.bubble-1_1_fr_93ecl41gr6m83-fill" data-item-order="-225730" transform="translate(39 243)"><path id="1.bubble-1_1_fr_93ecl41gr6m83-fill" fill="#fff8b6" stroke="none" d="M202 10v72H10V10h192ZM34 106c-13.255 0-24-10.745-24-24h24v24Zm168-24h-24v24c13.255 0 24-10.745 24-24ZM34 106V82h144v24H34Z"></path></g><g id="g-root-2.bubble-2_fr_7rcc81gr6n0t-fill" data-item-order="-225704" transform="translate(255 111)"><path id="2.bubble-2_fr_7rcc81gr6n0t-fill" fill="#e9ffb9" stroke="none" d="M34 22c-6.627 0-12 5.373-12 12H10c0-13.255 10.745-24 24-24v12Zm144 0V10H34v12h144Zm0-12c13.255 0 24 10.745 24 24h-12c0-6.627-5.373-12-12-12V10Zm24 24v84h-12V34h12ZM10 118V34h12v84H10Zm12 0c0 6.627 5.373 12 12 12v12H10v-24h12Zm168 0c0 6.627-5.373 12-12 12v12h24v-24h-12Zm-96 12H34v12h144v-12h-60l-9.172 9.172a4 4 0 0 1-5.656 0L94 130Z"></path></g><g id="g-root-2.bubble-2_1_fr_1ut1w6w1gr6nlz-fill" data-item-order="-225652" transform="translate(255 243)"><path id="2.bubble-2_1_fr_1ut1w6w1gr6nlz-fill" fill="#e9ffb9" stroke="none" d="M202 10v84H10V10h192ZM34 118c-13.255 0-24-10.745-24-24h24v24Zm168-24h-24v24c13.255 0 24-10.745 24-24ZM34 118V94h144v24H34Z"></path></g><g id="g-root-3.bubble-3_fr_1ut1w6w1gr6nm1-fill" data-item-order="-225626" transform="translate(471 111)"><path id="3.bubble-3_fr_1ut1w6w1gr6nm1-fill" fill="#c8ffe5" stroke="none" d="M34 22c-6.627 0-12 5.373-12 12H10c0-13.255 10.745-24 24-24v12Zm144 0V10H34v12h144Zm0-12c13.255 0 24 10.745 24 24h-12c0-6.627-5.373-12-12-12V10Zm24 24v84h-12V34h12ZM10 118V34h12v84H10Zm12 0c0 6.627 5.373 12 12 12v12H10v-24h12Zm168 0c0 6.627-5.373 12-12 12v12h24v-24h-12Zm-96 12H34v12h144v-12h-60l-9.172 9.172a4 4 0 0 1-5.656 0L94 130Z"></path></g><g id="g-root-3.bubble-3_1_fr_1qd8e2g1gr6oeb-fill" data-item-order="-225572" transform="translate(471 243)"><path id="3.bubble-3_1_fr_1qd8e2g1gr6oeb-fill" fill="#c8ffe5" stroke="none" d="M202 10v72H10V10h192ZM34 106c-13.255 0-24-10.745-24-24h24v24Zm168-24h-24v24c13.255 0 24-10.745 24-24ZM34 106V82h144v24H34Z"></path></g><g id="g-root-tx_motdepas_4nkugo1gr81z9-fill" data-item-order="0" transform="translate(63 195)"><text id="tx_motdepas_4nkugo1gr81z9-fill" fill="#e0cb15" stroke="none" font-family="Roboto, sans-serif" font-size="20" font-weight="bold" style="font:700 20px Roboto,sans-serif;white-space:pre"><tspan x="14.31" y="34" dominant-baseline="ideographic">Ce que l'on sait</tspan></text></g><g id="g-root-tx_possessi_1lzab7c1gr835z-fill" data-item-order="0" transform="translate(291 195)"><text id="tx_possessi_1lzab7c1gr835z-fill" fill="#92bd39" stroke="none" font-family="Roboto, sans-serif" font-size="20" font-weight="bold" style="font:700 20px Roboto,sans-serif;white-space:pre"><tspan x="13.48" y="34" dominant-baseline="ideographic">Ce que l'on a</tspan></text></g><g id="g-root-tx_biomtrie_6ie601gr9fk8-fill" data-item-order="0" transform="translate(495 195)"><text id="tx_biomtrie_6ie601gr9fk8-fill" fill="#3cc583" stroke="none" font-family="Roboto, sans-serif" font-size="20" font-weight="bold" style="font:700 20px Roboto,sans-serif;white-space:pre"><tspan x="16.91" y="34" dominant-baseline="ideographic">Ce que l'on est</tspan></text></g><g id="g-root-tx_unmotouu_18mkuns1gr82ko-fill" data-item-order="0" transform="translate(63 255)"><text id="tx_unmotouu_18mkuns1gr82ko-fill" fill="#e0cb15" stroke="none" font-family="Roboto, sans-serif" font-size="15" style="font:15px Roboto,sans-serif;white-space:pre"><tspan x="33.44" y="31" dominant-baseline="ideographic">Un mot ou une </tspan><tspan x="32.81" y="49" dominant-baseline="ideographic">phrase secrète </tspan><tspan x="14.52" y="67" dominant-baseline="ideographic">utilisée pour l'accès.</tspan></text></g><g id="g-root-tx_objetsut_zitoag1gr9hq8-fill" data-item-order="0" transform="translate(273 255)"><text id="tx_objetsut_zitoag1gr9hq8-fill" fill="#92bd39" stroke="none" font-family="Roboto, sans-serif" font-size="15" style="font:15px Roboto,sans-serif;white-space:pre"><tspan x="22.92" y="28" dominant-baseline="ideographic">Objets utilisés pour </tspan><tspan x="11.94" y="46" dominant-baseline="ideographic">l'identification, comme </tspan><tspan x="12.06" y="64" dominant-baseline="ideographic">des téléphones ou des </tspan><tspan x="64.05" y="82" dominant-baseline="ideographic">cartes.</tspan></text></g><g id="g-root-tx_traitsph_1uuxbg81gr9hc7-fill" data-item-order="0" transform="translate(495 255)"><text id="tx_traitsph_1uuxbg81gr9hc7-fill" fill="#3cc583" stroke="none" font-family="Roboto, sans-serif" font-size="15" style="font:15px Roboto,sans-serif;white-space:pre"><tspan x="26.49" y="31" dominant-baseline="ideographic">Traits physiques </tspan><tspan x="11.99" y="49" dominant-baseline="ideographic">uniques utilisés pour </tspan><tspan x="34.48" y="67" dominant-baseline="ideographic">la vérification.</tspan></text></g><g id="g-root-1.bubble-1_fr_93ecl41gr6m81-stroke" data-item-order="-225782" transform="translate(39 111)"><path id="1.bubble-1_fr_93ecl41gr6m81-stroke" fill="none" stroke="#fff" stroke-linecap="round" stroke-linejoin="round" stroke-miterlimit="4" stroke-width="2" d="M10 34c0-13.255 10.745-24 24-24m144 0H34m168 24c0-13.255-10.745-24-24-24m24 132V34M10 142V34m12 0c0-6.627 5.373-12 12-12m144 0H34m156 12c0-6.627-5.373-12-12-12m12 96V34m-12 96c6.627 0 12-5.373 12-12M34 130h60l9.172 9.172a4 4 0 0 0 5.656 0L118 130h60m-144 0c-6.627 0-12-5.373-12-12m0 0V34"></path></g><g id="g-root-1.bubble-1_1_fr_93ecl41gr6m83-stroke" data-item-order="-225730" transform="translate(39 243)"><path id="1.bubble-1_1_fr_93ecl41gr6m83-stroke" fill="none" stroke="#fff" stroke-linecap="round" stroke-linejoin="round" stroke-miterlimit="4" stroke-width="2" d="M202 82V10m-24 96c13.255 0 24-10.745 24-24M34 106h144m-144 0c-13.255 0-24-10.745-24-24m0 0V10"></path></g><g id="g-root-2.bubble-2_fr_7rcc81gr6n0t-stroke" data-item-order="-225704" transform="translate(255 111)"><path id="2.bubble-2_fr_7rcc81gr6n0t-stroke" fill="none" stroke="#fff" stroke-linecap="round" stroke-linejoin="round" stroke-miterlimit="4" stroke-width="2" d="M10 34c0-13.255 10.745-24 24-24m144 0H34m168 24c0-13.255-10.745-24-24-24m24 132V34M10 142V34m12 0c0-6.627 5.373-12 12-12m144 0H34m156 12c0-6.627-5.373-12-12-12m12 96V34m-12 96c6.627 0 12-5.373 12-12M34 130h60l9.172 9.172a4 4 0 0 0 5.656 0L118 130h60m-144 0c-6.627 0-12-5.373-12-12m0 0V34"></path></g><g id="g-root-2.bubble-2_1_fr_1ut1w6w1gr6nlz-stroke" data-item-order="-225652" transform="translate(255 243)"><path id="2.bubble-2_1_fr_1ut1w6w1gr6nlz-stroke" fill="none" stroke="#fff" stroke-linecap="round" stroke-linejoin="round" stroke-miterlimit="4" stroke-width="2" d="M202 94V10m-24 108c13.255 0 24-10.745 24-24M34 118h144m-144 0c-13.255 0-24-10.745-24-24m0 0V10"></path></g><g id="g-root-3.bubble-3_fr_1ut1w6w1gr6nm1-stroke" data-item-order="-225626" transform="translate(471 111)"><path id="3.bubble-3_fr_1ut1w6w1gr6nm1-stroke" fill="none" stroke="#fff" stroke-linecap="round" stroke-linejoin="round" stroke-miterlimit="4" stroke-width="2" d="M10 34c0-13.255 10.745-24 24-24m144 0H34m168 24c0-13.255-10.745-24-24-24m24 132V34M10 142V34m12 0c0-6.627 5.373-12 12-12m144 0H34m156 12c0-6.627-5.373-12-12-12m12 96V34m-12 96c6.627 0 12-5.373 12-12M34 130h60l9.172 9.172a4 4 0 0 0 5.656 0L118 130h60m-144 0c-6.627 0-12-5.373-12-12m0 0V34"></path></g><g id="g-root-3.bubble-3_1_fr_1qd8e2g1gr6oeb-stroke" data-item-order="-225572" transform="translate(471 243)"><path id="3.bubble-3_1_fr_1qd8e2g1gr6oeb-stroke" fill="none" stroke="#fff" stroke-linecap="round" stroke-linejoin="round" stroke-miterlimit="4" stroke-width="2" d="M202 82V10m-24 96c13.255 0 24-10.745 24-24M34 106h144m-144 0c-13.255 0-24-10.745-24-24m0 0V10"></path></g><g id="g-root-1_1hi7uwo1gr6m1a-stroke" data-item-order="0" transform="translate(111 135)"><path id="1_1hi7uwo1gr6m1a-stroke" fill="none" stroke="#e0cb15" stroke-linecap="round" stroke-linejoin="round" stroke-miterlimit="4" stroke-width="2" d="M21.94 35.06a11 11 0 1 0 10.638 14.01h2.426l2 1.932 2-1.922h2l2.01 1.908 1.99-1.908 3-.014L51 45.93l-3.024-2.87H32.55a11.032 11.032 0 0 0-10.61-8Zm-6.95 11a3 3 0 1 0 6 0 3 3 0 0 0-6 0ZM55 45.01a2 2 0 0 0 2-2V27.06a2 2 0 0 0-2-1.99l-22-.018a2 2 0 0 0-2 2v6.058m4.012-8.05L35 20.1a9 9 0 1 1 18-.08l.022 5.04M41 34.06a3 3 0 1 0 6 0 3 3 0 0 0-6 0Z"></path></g><g id="g-root-1_18mkuns1gr82kq-stroke" data-item-order="0" transform="translate(327 135)"><path id="1_18mkuns1gr82kq-stroke" fill="none" stroke="#92bd39" stroke-linecap="round" stroke-linejoin="round" stroke-miterlimit="4" stroke-width="2" d="M41 49H15m13 3.5a.5.5 0 0 1 .5.5h0a.5.5 0 0 1-.5.5h0a.5.5 0 0 1-.5-.5h0a.5.5 0 0 1 .5-.5m0 0h0M41 39v14a4 4 0 0 1-4 4H19a4 4 0 0 1-4-4V15a4 4 0 0 1 4-4h11m-1 10h24m-12 6h6M31 15h20s2 0 2 2v14s0 2-2 2H31s-2 0-2-2V17s0-2 2-2"></path></g><g id="g-root-1_zitoag1gr9hqa-stroke" data-item-order="0" transform="translate(543 135)"><path id="1_zitoag1gr9hqa-stroke" fill="none" stroke="#3cc583" stroke-linecap="round" stroke-linejoin="round" stroke-miterlimit="4" stroke-width="2" d="M34 57c9.941 0 18-8.059 18-18V29a17.934 17.934 0 0 0-4.586-12M16 33v6a18 18 0 0 0 11 16.588m16-42.176A18 18 0 0 0 16.028 28M29 18.088A12 12 0 0 1 46 29v10c0 1.012-.127 2.02-.378 3m-2.678 5A12 12 0 0 1 22 39V29a11.958 11.958 0 0 1 3.056-8M28 39a6 6 0 0 0 12 0V29a6 6 0 1 0-12 0v6m6-6v6m0 4v2"></path></g></g></g></svg>
