<svg xmlns="http://www.w3.org/2000/svg" style="fill:none;stroke:none;fill-rule:evenodd;clip-rule:evenodd;stroke-linecap:round;stroke-linejoin:round;stroke-miterlimit:1.5" viewBox="36 108 974 386"><style data-font-family="Roboto">@import url(https://fonts.googleapis.com/css2?family=Roboto:wght@400;700&amp;display=block);</style><g id="items" style="isolation:isolate"><g id="blend" style="mix-blend-mode:normal"><g id="g-root-tx_limitati_13ymdzf1yinoqz-fill" data-item-order="0" transform="translate(267 207)"><text id="tx_limitati_13ymdzf1yinoqz-fill" fill="#e55753" stroke="none" font-family="Roboto, sans-serif" font-size="20" font-weight="bold" style="font:700 20px Roboto,sans-serif;white-space:pre"><tspan x="12" y="33.5" dominant-baseline="ideographic">Limitations des </tspan><tspan x="12" y="57.5" dominant-baseline="ideographic">passkey</tspan></text></g><g id="g-root-tx_mcanisme_m7yukr1yinnyd-fill" data-item-order="0" transform="translate(615 201)"><text id="tx_mcanisme_m7yukr1yinnyd-fill" fill="#3cc583" stroke="none" font-family="Roboto, sans-serif" font-size="20" font-weight="bold" style="font:700 20px Roboto,sans-serif;white-space:pre"><tspan x="20.61" y="33.5" dominant-baseline="ideographic">Mécanisme de </tspan><tspan x="80.4" y="57.5" dominant-baseline="ideographic">secours</tspan></text></g><g id="g-root-tx_ncessite_qn5vm31yinqbw-fill" data-item-order="0" transform="translate(267 267)"><text id="tx_ncessite_qn5vm31yinqbw-fill" fill="#e55753" stroke="none" font-family="Roboto, sans-serif" font-size="15" style="font:15px Roboto,sans-serif;white-space:pre"><tspan x="12" y="30.5" dominant-baseline="ideographic">Le stockage matériel </tspan><tspan x="12" y="48.5" dominant-baseline="ideographic">peut être saturé et ne </tspan><tspan x="12" y="66.5" dominant-baseline="ideographic">pas permettre </tspan><tspan x="12" y="84.5" dominant-baseline="ideographic">l'utilisation de la </tspan><tspan x="12" y="102.5" dominant-baseline="ideographic">découvrabilité</tspan></text></g><g id="g-root-tx_offreune_dcbubv1yinor2-fill" data-item-order="0" transform="translate(615 261)"><text id="tx_offreune_dcbubv1yinor2-fill" fill="#3cc583" stroke="none" font-family="Roboto, sans-serif" font-size="15" style="font:15px Roboto,sans-serif;white-space:pre"><tspan x="35.61" y="27.5" dominant-baseline="ideographic">Conserver d'autre </tspan><tspan x="46.4" y="45.5" dominant-baseline="ideographic">mécanismes en </tspan><tspan x="45.92" y="63.5" dominant-baseline="ideographic">solution de repli </tspan><tspan x="49.49" y="81.5" dominant-baseline="ideographic">(Login / mot de </tspan><tspan x="34.22" y="99.5" dominant-baseline="ideographic">passe, magic link, </tspan><tspan x="21.9" y="117.5" dominant-baseline="ideographic">2FA SMS / code, ...)</tspan></text></g><g id="g-root-2.g-2_fr_qu10ej1yima6f-stroke" data-item-order="-454166" transform="translate(519 99)"><path id="2.g-2_fr_qu10ej1yima6f-stroke" fill="none" stroke="#3cc583" stroke-linecap="round" stroke-linejoin="round" stroke-miterlimit="4" stroke-width="2" d="M490 10H10v114.227c40.275 3.064 72 36.714 72 77.773 0 41.06-31.725 74.709-72 77.773V394h480V10Z"/></g><g id="g-root-0.g-0_fr_qu10ej1yima6h-stroke" data-item-order="-454162" transform="translate(447 225)"><path id="0.g-0_fr_qu10ej1yima6h-stroke" fill="none" stroke="gray" stroke-linecap="round" stroke-linejoin="round" stroke-miterlimit="4" stroke-width="2" d="M76 142c36.45 0 66-29.55 66-66s-29.55-66-66-66-66 29.55-66 66 29.55 66 66 66Zm27.27-57.121c.233.601.35 1.28.35 2.036 0 .95-.243 1.804-.728 2.56-.466.757-1.193 1.349-2.182 1.775-.97.427-2.211.64-3.724.64-1.242 0-2.386-.126-3.433-.378-1.028-.252-1.92-.66-2.677-1.222-.737-.562-1.31-1.3-1.716-2.21-.408-.912-.611-2.028-.611-3.347H79.79c0 2.386.495 4.452 1.484 6.197a12.758 12.758 0 0 0 3.957 4.306c1.668 1.125 3.52 1.969 5.557 2.531 2.036.543 4.102.815 6.197.815 2.327 0 4.432-.262 6.313-.786 1.881-.523 3.5-1.29 4.859-2.298 1.357-1.009 2.395-2.24 3.113-3.695.717-1.455 1.076-3.103 1.076-4.946 0-1.745-.3-3.307-.902-4.684-.601-1.377-1.493-2.609-2.676-3.695-1.184-1.086-2.658-2.065-4.423-2.938-1.745-.873-3.772-1.658-6.08-2.357a38.22 38.22 0 0 1-3.637-1.309c-1.047-.446-1.93-.921-2.647-1.425-.718-.505-1.261-1.048-1.63-1.63a3.715 3.715 0 0 1-.523-1.949c0-.95.252-1.804.756-2.56.505-.776 1.26-1.387 2.27-1.833 1.008-.466 2.269-.698 3.782-.698 1.57 0 2.87.271 3.898.814 1.047.543 1.823 1.29 2.328 2.24.523.931.785 2.018.785 3.259h8.67c0-2.522-.65-4.762-1.95-6.72-1.28-1.96-3.083-3.502-5.41-4.627-2.328-1.124-5.053-1.687-8.176-1.687-2.289 0-4.393.281-6.313.844-1.9.562-3.55 1.367-4.946 2.415-1.397 1.027-2.483 2.269-3.258 3.724-.776 1.435-1.164 3.035-1.164 4.8 0 1.823.368 3.423 1.105 4.8.757 1.377 1.785 2.59 3.084 3.637 1.32 1.028 2.832 1.93 4.539 2.706a53.411 53.411 0 0 0 5.47 2.095c1.726.543 3.132 1.066 4.218 1.57 1.086.505 1.93 1.019 2.531 1.543.601.504 1.009 1.066 1.222 1.687ZM77.61 55.64h-9.718l-9.6 32.243L48.72 55.64h-9.66L53.725 98h9.135l14.75-42.36Z"/></g><g id="g-root-1.g-1_fr_me7ia31yimayr-stroke" data-item-order="-454158" transform="translate(27 99)"><path id="1.g-1_fr_me7ia31yimayr-stroke" fill="none" stroke="#e55753" stroke-linecap="round" stroke-linejoin="round" stroke-miterlimit="4" stroke-width="2" d="M490 10H10v384h480V279.773c-40.275-3.064-72-36.714-72-77.773 0-41.06 31.725-74.709 72-77.773V10Z"/></g><g id="g-root-2_93dgzv1yim9dy-stroke" data-item-order="0" transform="translate(51 195)"><path id="2_93dgzv1yim9dy-stroke" fill="none" stroke="#e55753" stroke-linecap="round" stroke-linejoin="round" stroke-miterlimit="4" stroke-width="2" d="M172 196c13.254 0 24-10.745 24-24s-10.746-24-24-24c-13.255 0-24 10.745-24 24s10.745 24 24 24Zm-24-24H96c-4.8 0-8-3.2-8-8v-16m28 4v20m-84-32v8c0 8.8 7.2 16 16 16h16M32 36v-4c0-8.8 7.2-16 16-16h104c8.8 0 16 7.2 16 16v88M48 52c0 4.8-3.2 8-8 8H24c-4.8 0-8-3.2-8-8v-8c0-4.8 3.2-8 8-8h16c4.8 0 8 3.2 8 8v8Zm0 80c0 4.8-3.2 8-8 8H24c-4.8 0-8-3.2-8-8v-8c0-4.8 3.2-8 8-8h16c4.8 0 8 3.2 8 8v8Zm56-4c22.092 0 40-17.909 40-40s-17.908-40-40-40c-22.09 0-40 17.909-40 40s17.91 40 40 40Zm0-28c6.628 0 12-5.373 12-12s-5.372-12-12-12c-6.627 0-12 5.373-12 12s5.373 12 12 12Zm40-12h-28m-84 28V60"/></g><g id="g-root-1_8vvv4b1yii1vm-stroke" data-item-order="0" transform="translate(783 195)"><path id="1_8vvv4b1yii1vm-stroke" fill="none" stroke="#3cc583" stroke-linecap="round" stroke-linejoin="round" stroke-miterlimit="4" stroke-width="2" d="M30 174V94a8 8 0 0 1 8-8m112 88v-32M62 14h48s8 0 8 8v96s0 8-8 8H62s-8 0-8-8V22s0-8 8-8m80 0h48s8 0 8 8v96s0 8-8 8h-48s-8 0-8-8V22s0-8 8-8m24 92h0a2 2 0 0 1 2 2h0a2 2 0 0 1-2 2h0a2 2 0 0 1-2-2h0a2 2 0 0 1 2-2m-64 68c0 6.627-5.373 12-12 12s-12-5.373-12-12H14v8c0 8.837 7.163 16 16 16h120c8.837 0 16-7.163 16-16v-8ZM62 14l12 16h24l12-16"/></g></g></g></svg>