<svg xmlns="http://www.w3.org/2000/svg" style="fill:none;stroke:none;fill-rule:evenodd;clip-rule:evenodd;stroke-linecap:round;stroke-linejoin:round;stroke-miterlimit:1.5" viewBox="59.64 132 585.33 300.5"><style data-font-family="Roboto">@import url(https://fonts.googleapis.com/css2?family=Roboto:wght@400;700&amp;display=block);</style><g id="items" style="isolation:isolate"><g id="blend" style="mix-blend-mode:normal"><g id="g-root-3.cr-big_cr_vb4ffs1fxkjyc-fill" data-item-order="-21588" transform="translate(159 315)"><path id="3.cr-big_cr_vb4ffs1fxkjyc-fill" fill="#92bd39" stroke="none" d="M10 46c0 19.882 16.118 36 36 36s36-16.118 36-36-16.118-36-36-36-36 16.118-36 36"/></g><g id="g-root-2.cr-big_cr_vb4ffs1fxkjyd-fill" data-item-order="-21584" transform="translate(159 219)"><path id="2.cr-big_cr_vb4ffs1fxkjyd-fill" fill="#3cc583" stroke="none" d="M10 46c0 19.882 16.118 36 36 36s36-16.118 36-36-16.118-36-36-36-36 16.118-36 36"/></g><g id="g-root-1.cr-big_cr_vb4ffs1fxkjye-fill" data-item-order="-21580" transform="translate(159 123)"><path id="1.cr-big_cr_vb4ffs1fxkjye-fill" fill="#4e88e7" stroke="none" d="M10 46c0 19.882 16.118 36 36 36s36-16.118 36-36-16.118-36-36-36-36 16.118-36 36"/></g><g id="g-root-tx_annes196_1qf3wh41fxki6l-fill" data-item-order="0" transform="translate(39 147)"><text id="tx_annes196_1qf3wh41fxki6l-fill" fill="#4e88e7" stroke="none" font-family="Roboto, sans-serif" font-size="20" font-weight="bold" style="font:700 20px Roboto,sans-serif;white-space:pre"><tspan x="20.64" y="34" dominant-baseline="ideographic">Années 60</tspan></text></g><g id="g-root-tx_introduc_4otvs81fxkjyi-fill" data-item-order="0" transform="translate(255 135)"><text id="tx_introduc_4otvs81fxkjyi-fill" fill="#3a4455" stroke="none" font-family="Roboto, sans-serif" font-size="20" style="font:20px Roboto,sans-serif;white-space:pre"><tspan x="12" y="34" dominant-baseline="ideographic">Introduction des mots de passe par </tspan><tspan x="12" y="58" dominant-baseline="ideographic">Fernando Corbató</tspan></text></g><g id="g-root-tx_1987_9muqw1fxkhl0-fill" data-item-order="0" transform="translate(87 243)"><text id="tx_1987_9muqw1fxkhl0-fill" fill="#3cc583" stroke="none" font-family="Roboto, sans-serif" font-size="20" font-weight="bold" style="font:700 20px Roboto,sans-serif;white-space:pre"><tspan x="22.08" y="34" dominant-baseline="ideographic">1987</tspan></text></g><g id="g-root-tx_rsasecur_dkgw141fxkj5t-fill" data-item-order="0" transform="translate(255 231)"><text id="tx_rsasecur_dkgw141fxkj5t-fill" fill="#374840" stroke="none" font-family="Roboto, sans-serif" font-size="20" style="font:20px Roboto,sans-serif;white-space:pre"><tspan x="12" y="34" dominant-baseline="ideographic">RSA SecurID : Première authentification à </tspan><tspan x="12" y="58" dominant-baseline="ideographic">deux facteurs</tspan></text></g><g id="g-root-tx_2011_9muqw1fxkhkz-fill" data-item-order="0" transform="translate(87 339)"><text id="tx_2011_9muqw1fxkhkz-fill" fill="#92bd39" stroke="none" font-family="Roboto, sans-serif" font-size="20" font-weight="bold" style="font:700 20px Roboto,sans-serif;white-space:pre"><tspan x="22.08" y="34" dominant-baseline="ideographic">2011</tspan></text></g><g id="g-root-tx_googleme_i0ae5k1fxkidk-fill" data-item-order="0" transform="translate(255 327)"><text id="tx_googleme_i0ae5k1fxkidk-fill" fill="#424736" stroke="none" font-family="Roboto, sans-serif" font-size="20" style="font:20px Roboto,sans-serif;white-space:pre"><tspan x="12" y="34" dominant-baseline="ideographic">Google met en œuvre l'authentification à </tspan><tspan x="12" y="58" dominant-baseline="ideographic">deux facteurs</tspan></text></g><g id="g-root--1.Vector_sy_zqxxk81fxkj62-stroke" data-item-order="-21595" transform="translate(195 195)"><path id="-1.Vector_sy_zqxxk81fxkj62-stroke" fill="none" stroke="#484848" stroke-linecap="round" stroke-linejoin="round" stroke-miterlimit="4" stroke-width="2" d="M10 130v-24m0-72V10"/></g><g id="g-root--1.line_sy_zqxxk81fxkj63-stroke" data-item-order="-21591" transform="translate(195 387)"><g id="-1.line_sy_zqxxk81fxkj63-stroke" fill="none" stroke="#484848" stroke-linecap="round" stroke-linejoin="round" stroke-miterlimit="4" stroke-width="2"><path d="M10 44V10M3.5 38l6.5 6.5 6.5-6.5"/></g></g><g id="g-root-3.cr-big_cr_vb4ffs1fxkjyc-stroke" data-item-order="-21588" transform="translate(159 315)"><path id="3.cr-big_cr_vb4ffs1fxkjyc-stroke" fill="none" stroke="#fff" stroke-linecap="round" stroke-linejoin="round" stroke-miterlimit="4" stroke-width="2" d="M10 46c0 19.882 16.118 36 36 36s36-16.118 36-36-16.118-36-36-36-36 16.118-36 36"/></g><g id="g-root-2.cr-big_cr_vb4ffs1fxkjyd-stroke" data-item-order="-21584" transform="translate(159 219)"><path id="2.cr-big_cr_vb4ffs1fxkjyd-stroke" fill="none" stroke="#fff" stroke-linecap="round" stroke-linejoin="round" stroke-miterlimit="4" stroke-width="2" d="M10 46c0 19.882 16.118 36 36 36s36-16.118 36-36-16.118-36-36-36-36 16.118-36 36"/></g><g id="g-root-1.cr-big_cr_vb4ffs1fxkjye-stroke" data-item-order="-21580" transform="translate(159 123)"><path id="1.cr-big_cr_vb4ffs1fxkjye-stroke" fill="none" stroke="#fff" stroke-linecap="round" stroke-linejoin="round" stroke-miterlimit="4" stroke-width="2" d="M10 46c0 19.882 16.118 36 36 36s36-16.118 36-36-16.118-36-36-36-36 16.118-36 36"/></g><g id="g-root-acce_1ut1zc81fxncay-stroke" data-item-order="0" transform="translate(171 135)"><path id="acce_1ut1zc81fxncay-stroke" fill="none" stroke="#fff" stroke-linecap="round" stroke-linejoin="round" stroke-miterlimit="4" stroke-width="2" d="M21 43.5c0 7.18 5.82 13 13 13s13-5.82 13-13-5.82-13-13-13-13 5.82-13 13m9 0a4 4 0 1 0 8 0 4 4 0 0 0-8 0m14-8.3V21.5c0-5.523-4.477-10-10-10s-10 4.477-10 10v3"/></g><g id="g-root-2_4il4x41fxncao-stroke" data-item-order="0" transform="translate(171 231)"><path id="2_4il4x41fxncao-stroke" fill="none" stroke="#fff" stroke-linecap="round" stroke-linejoin="round" stroke-miterlimit="4" stroke-width="2" d="m47.864 33.9.8 2.6c.2 1 1.2 1.4 2.2 1.2l2.6-.6c2.4-.6 4 2.2 2.4 4l-1.8 2c-.6.8-.6 1.8 0 2.4l1.8 2c1.6 1.8 0 4.6-2.4 4l-2.6-.6c-1-.2-1.8.4-2.2 1.2l-.8 2.6c-.8 2.4-4 2.4-4.6 0l-.8-2.6c-.2-1-1.2-1.4-2.2-1.2l-2.6.6c-2.4.6-4-2.2-2.4-4l1.8-2c.6-.8.6-1.8 0-2.4l-1.8-2c-1.6-1.8 0-4.6 2.4-4l2.6.6c1 .2 1.8-.4 2.2-1.2l.8-2.6c.6-2.4 4-2.4 4.6 0ZM29.5 23.5v-4.4c0-4.2-3.4-7.6-7.6-7.6-4.2 0-7.6 3.4-7.6 7.6v4.4m7.2 18h-7c-1.6 0-3-1.4-3-3v-12c0-1.6 1.4-3 3-3h15c1.6 0 3 1.4 3 3v3m-5.4 12h8.4m-12-5.4h6.6m15.464 10.956a2.757 2.757 0 1 0 0-5.514 2.757 2.757 0 0 0 0 5.514Z"/></g><g id="g-root-goog_1qf3wh41fxki6m-stroke" data-item-order="0" transform="translate(171 327)"><path id="goog_1qf3wh41fxki6m-stroke" fill="none" stroke="#fff" stroke-linecap="round" stroke-linejoin="round" stroke-miterlimit="4" stroke-width="2" d="M48.949 29.989H40.41a1.749 1.749 0 0 0-1.748 1.782v4.835c0 .965.783 1.748 1.748 1.748h4.423A9.429 9.429 0 0 1 34.55 47.92c-7.68 0-11.383-6.514-11.383-13.92s3.977-13.92 11.383-13.92c3.27-.108 6.473.935 9.051 2.949a1.68 1.68 0 0 0 2.469-.755l2.16-4.937c.366-.75.15-1.655-.515-2.16a24.24 24.24 0 0 0-13.028-3.428C22.206 11.714 13.703 21.417 13.703 34c0 12.583 8.537 22.286 20.846 22.286 12.308 0 19.748-8.777 19.748-20.572 0-3.771-1.508-5.725-5.348-5.725Z"/></g></g></g></svg>