<svg xmlns="http://www.w3.org/2000/svg" style="fill:none;stroke:none;fill-rule:evenodd;clip-rule:evenodd;stroke-linecap:round;stroke-linejoin:round;stroke-miterlimit:1.5" viewBox="74 101 652.31 486.83"><style data-font-family="Roboto">@import url(https://fonts.googleapis.com/css2?family=Roboto:wght@400;700&amp;display=block);</style><g id="items" style="isolation:isolate"><g id="blend" style="mix-blend-mode:normal"><g id="g-root-tx_clprive_vbqq6g1ejiccn-fill" data-item-order="0" transform="translate(425 136.414)"><text id="tx_clprive_vbqq6g1ejiccn-fill" fill="#484848" stroke="none" font-family="Roboto, sans-serif" font-size="20" font-weight="bold" style="font:700 20px Roboto,sans-serif;white-space:pre"><tspan x="12" y="34" dominant-baseline="ideographic">Clé Privée</tspan></text></g><g id="g-root-tx_utilisep_qvx8201ejid4w-fill" data-item-order="0" transform="translate(425 172.414)"><text id="tx_utilisep_qvx8201ejid4w-fill" fill="#484848" stroke="none" font-family="Roboto, sans-serif" font-size="15" style="font:15px Roboto,sans-serif;white-space:pre"><tspan x="12" y="28" dominant-baseline="ideographic">Utilisée pour créer la signature, assurant la </tspan><tspan x="12" y="46" dominant-baseline="ideographic">confidentialité et la sécurité.</tspan></text></g><g id="g-root-tx_clpubliq_zlbhfs1ejjoxv-fill" data-item-order="0" transform="translate(425 244.414)"><text id="tx_clpubliq_zlbhfs1ejjoxv-fill" fill="#484848" stroke="none" font-family="Roboto, sans-serif" font-size="20" font-weight="bold" style="font:700 20px Roboto,sans-serif;white-space:pre"><tspan x="12" y="34" dominant-baseline="ideographic">Clé Publique</tspan></text></g><g id="g-root-tx_signatur_4jtwqw1ejgyrk-fill" data-item-order="0" transform="translate(155.096 257.941)"><text id="tx_signatur_4jtwqw1ejgyrk-fill" fill="gray" stroke="none" font-family="Roboto, sans-serif" font-size="20" font-weight="bold" style="font:700 20px Roboto,sans-serif;white-space:pre"><tspan x="20.57" y="34" dominant-baseline="ideographic">Signature </tspan><tspan x="14.32" y="58" dominant-baseline="ideographic">Numérique</tspan></text></g><g id="g-root-tx_utilisep_zlbhfs1ejjoxw-fill" data-item-order="0" transform="translate(425 280.414)"><text id="tx_utilisep_zlbhfs1ejjoxw-fill" fill="#484848" stroke="none" font-family="Roboto, sans-serif" font-size="15" style="font:15px Roboto,sans-serif;white-space:pre"><tspan x="12" y="28" dominant-baseline="ideographic">Utilisée pour vérifier la signature, </tspan><tspan x="12" y="46" dominant-baseline="ideographic">garantissant l'authenticité et l'intégrité.</tspan></text></g><g id="g-root-tx_processu_vahs081ejjp51-fill" data-item-order="0" transform="translate(425 352.414)"><text id="tx_processu_vahs081ejjp51-fill" fill="#484848" stroke="none" font-family="Roboto, sans-serif" font-size="20" font-weight="bold" style="font:700 20px Roboto,sans-serif;white-space:pre"><tspan x="12" y="34" dominant-baseline="ideographic">Processus de Signature</tspan></text></g><g id="g-root-tx_lemcanis_meurrc1ejjpxq-fill" data-item-order="0" transform="translate(413 388.414)"><text id="tx_lemcanis_meurrc1ejjpxq-fill" fill="#484848" stroke="none" font-family="Roboto, sans-serif" font-size="15" style="font:15px Roboto,sans-serif;white-space:pre"><tspan x="12" y="28" dominant-baseline="ideographic">Le mécanisme de signature initial qui établit </tspan><tspan x="12" y="46" dominant-baseline="ideographic">l'authenticité.</tspan></text></g><g id="g-root-tx_vrificat_18n78js1ejjpqn-fill" data-item-order="0" transform="translate(425 460.414)"><text id="tx_vrificat_18n78js1ejjpqn-fill" fill="#484848" stroke="none" font-family="Roboto, sans-serif" font-size="20" font-weight="bold" style="font:700 20px Roboto,sans-serif;white-space:pre"><tspan x="12" y="34" dominant-baseline="ideographic">Vérification</tspan></text></g><g id="g-root-tx_leproces_147dqfc1ejjqiw-fill" data-item-order="0" transform="translate(425 496.414)"><text id="tx_leproces_147dqfc1ejjqiw-fill" fill="#484848" stroke="none" font-family="Roboto, sans-serif" font-size="15" style="font:15px Roboto,sans-serif;white-space:pre"><tspan x="12" y="28" dominant-baseline="ideographic">Le processus de validation de la signature </tspan><tspan x="12" y="46" dominant-baseline="ideographic">pour détecter les modifications.</tspan></text></g><g id="g-root--1.g-0b_fr_zlxyiw1ejgx6q-stroke" data-item-order="-402718" transform="translate(89.837 339.172)"><path id="-1.g-0b_fr_zlxyiw1ejgx6q-stroke" fill="none" stroke="#484848" stroke-linecap="round" stroke-linejoin="round" stroke-miterlimit="4" stroke-width="2" d="m72.782 101.64-33.72-9.034c-3.215-.82-6.493 1.066-7.344 4.243-.851 3.178 1.046 6.452 4.243 7.348l-25.756 96.124a6 6 0 0 0 .599 4.553l4.413 7.644 26.14-97.557a6 6 0 1 1 11.592 3.106L23.703 227.215l.829 1.437a4 4 0 0 0 5.464 1.464l1.433-.828 30.023-112.047a6 6 0 0 1 7.349-4.243l1.933.518h.001l4.874 1.305a5.972 5.972 0 0 1 .004-1.003c.208-2.382 1.798-4.315 3.923-5.097a12 12 0 0 1-6.298-6.084l-.456-.996ZM15.217 212.519v.002m8.486 14.695v.002M68.8 112.998l6.81 1.824"></path><path stroke="#484848" stroke-miterlimit="4" stroke-width="2" d="M48.707 110.722a6 6 0 0 0-7.349 4.242l-26.14 97.557v.002l8.485 14.697v-.002L52.95 118.07a6 6 0 0 0-4.243-7.348Zm-33.489 101.8 8.485 14.696M68.801 113.003a6 6 0 0 0-7.348 4.242L31.43 229.293l18.878-10.9a2 2 0 0 0 .932-1.214l1.642-6.127a2 2 0 0 0-.2-1.518l-5.243-9.08 6.631-3.829a2 2 0 0 0 .932-1.214l1.124-4.195a2 2 0 0 0-.2-1.518l-3.828-6.63 5.616-3.244a2 2 0 0 0 .732-2.732l-3.242-5.616 9.29-5.364a2 2 0 0 0 .733-2.732l-5.364-9.29 5.616-3.243a2 2 0 0 0 .732-2.732l-3.243-5.617 6.631-3.828a2 2 0 0 0 .932-1.215l1.124-4.195a2 2 0 0 0-.2-1.517l-3.828-6.631 6.631-3.829a2 2 0 0 0 .932-1.214l1.339-4.996-7.728-2.07Zm1.935.517-.002.001-1.933-.518M55.363 49.523A12 12 0 0 0 54.33 61.33l12.653 27.643-16.98-4.55a11.993 11.993 0 0 1-7.284-5.59L27.375 52.256a8 8 0 0 1 2.928-10.928l49.103-28.35a8.026 8.026 0 0 1 1.662-.724L55.363 49.523ZM122.89 123.973l.017.019-1.495 17.089a2 2 0 0 1-.707 1.357l-5.865 4.922 4.169 4.968a2 2 0 0 1-.247 2.818l-4.968 4.168 4.922 5.866a2 2 0 0 1 .46 1.46l-.378 4.326a2 2 0 0 1-.707 1.358l-5.866 4.922 4.922 5.865a2 2 0 0 1 .46 1.46l-.378 4.327a2 2 0 0 1-.707 1.358l-5.866 4.921 6.74 8.033a2 2 0 0 1 .46 1.46l-.552 6.319a2 2 0 0 1-.707 1.357l-8.032 6.74 6.896 8.218a2 2 0 0 1-.247 2.818L98.329 244.29l10.11-115.559a6 6 0 0 1 6.5-5.454l7.95.696ZM94.755 124.523a6 6 0 0 0-6.5 5.454l-8.803 100.616 10.909 13 9.848-112.57a6 6 0 0 0-5.454-6.5Zm5.454 6.5-9.848 112.57-10.909-13 8.803-100.616a6 6 0 1 1 11.954 1.046Zm-9.848 112.57 9.848-112.57a6 6 0 0 0-11.954-1.046l-8.803 100.616 10.909 13Z"></path><path stroke="#484848" stroke-miterlimit="4" stroke-width="2" d="m121.884 112.092-42.345-3.373c-2.125.781-3.716 2.715-3.925 5.098-.287 3.278 2.15 6.173 5.454 6.5l-8.673 99.136a6 6 0 0 0 1.38 4.38l5.677 6.764 8.803-100.616a6 6 0 1 1 11.954 1.046l-9.848 112.57 1.063 1.268a4 4 0 0 0 5.635.493l1.271-1.065 10.11-115.559a6 6 0 0 1 6.5-5.454l7.95.696a5.93 5.93 0 0 1-1.604-3.567c-.267-3.05 1.825-5.77 4.779-6.396a53.932 53.932 0 0 1-4.18-1.921Zm1.005 11.884-5.958-.521M116.558 19.024c-15.897 10.591-25.669 29.309-23.887 49.68a53.94 53.94 0 0 0 4.274 16.863l-6.76-.591a6 6 0 0 0-6.501 5.454c-.17 1.938-2.798 2.398-3.615.632l-14.98-32.39a6 6 0 0 1 .52-5.944l23.036-33.119a6 6 0 0 1 5.448-2.55l22.465 1.965ZM156.203 129.4a6 6 0 0 1 5.454-6.5l7.97-.697.45 5.152a2 2 0 0 1-.46 1.46l-4.922 5.865 4.968 4.169a2 2 0 0 1 .247 2.818l-4.169 4.968 5.866 4.921a2 2 0 0 1 .707 1.358l.378 4.327a2 2 0 0 1-.46 1.46l-4.922 5.865 4.968 4.169a2 2 0 0 1 .247 2.818l-4.17 4.968 8.033 6.74a2 2 0 0 1 .707 1.357l.553 6.32a2 2 0 0 1-.46 1.459l-6.74 8.032 5.865 4.922a2 2 0 0 1 .707 1.358l.378 4.326a2 2 0 0 1-.46 1.46l-4.922 5.866 8.218 6.896a2 2 0 0 1 .247 2.817l-14.168 16.885v-.001L156.203 129.4Zm10.11 115.558 7.272-8.667M141.995 127.633a6 6 0 0 0-5.454 6.5l8.802 100.614v.001l13 10.907-9.848-112.568a6 6 0 0 0-6.5-5.454Zm16.349 118.024v-.002l-13-10.908"></path><path stroke="#484848" stroke-miterlimit="4" stroke-width="2" d="m149.717 111.922-23.647 2.09c-2.957.624-5.051 3.345-4.784 6.397.286 3.277 3.189 5.705 6.5 5.453L136.459 225a6 6 0 0 0 2.12 4.073l6.764 5.675-8.803-100.614a6 6 0 0 1 11.955-1.046l9.848 112.569 1.269 1.064a4 4 0 0 0 5.635-.493l1.065-1.27-10.11-115.556a6 6 0 0 1 5.455-6.5l9.823-.86c-2.14-.461-3.946-2.06-4.546-4.3-.779-2.905.74-5.89 3.45-7.066l.007-.003-.075-.041-.01.002-4.926 1.32a29.861 29.861 0 0 1-15.663-.031Zm-4.374 122.825v.002m13 10.907v.001m7.97-.7v.002m3.994-134.326.076.042.007.004m2.838-.836-2.921.783.009.005 2.951-.791M151.4 20.398c-7.757 8.746-11.111 21.096-7.86 33.232l.674 2.511c-12.31 6.131-19.113 20.14-15.743 33.947a6.002 6.002 0 0 0-3.299 5.893c.253 2.883-2.77 4.826-5.081 3.085-9.595-7.223-16.203-18.333-17.333-31.238-2.112-24.14 15.745-45.42 39.884-47.532a44.079 44.079 0 0 1 8.757.102Zm10.528-8.149a53.859 53.859 0 0 0-20.168-2.04c-29.71 2.599-51.688 28.79-49.088 58.5"></path><path stroke="#484848" stroke-miterlimit="4" stroke-width="2" d="m218.438 97.73-.028.008-48.103 12.889.084.046c-2.714 1.173-4.236 4.161-3.457 7.07.852 3.177 4.132 5.065 7.348 4.242l25.757 96.124a6 6 0 0 0 2.795 3.643l7.646 4.415-26.14-97.559a6 6 0 1 1 11.59-3.106l29.247 109.15 1.435.828a4 4 0 0 0 5.464-1.464l.828-1.435-30.023-112.047a6 6 0 0 1 4.243-7.349l14.42-3.864c3.239-.867 5.17-4.166 4.311-7.367-.857-3.2-4.178-5.092-7.417-4.224Zm0 0-48.13 12.897.083.046"></path><path stroke="#484848" stroke-miterlimit="4" stroke-width="2" d="M207.124 113.188a6 6 0 0 0-4.242 7.348l30.023 112.048 8.9-15.415a2 2 0 0 0-.733-2.732l-5.616-3.243 3.828-6.63a2 2 0 0 0 .2-1.518l-1.124-4.195a2 2 0 0 0-.932-1.215l-6.631-3.828-1.553-5.796 3.828-6.63a2 2 0 0 0 .2-1.518l-1.124-4.196a2 2 0 0 0-.932-1.214l-6.63-3.828 5.363-9.291a2 2 0 0 0-.732-2.732l-9.29-5.364 3.242-5.616a2 2 0 0 0-.732-2.733l-1.942-1.12 3.121-5.407a2 2 0 0 0 .2-1.518l-1.642-6.127a2 2 0 0 0-.931-1.214l-9.08-5.243 3.827-6.63a2 2 0 0 0 .2-1.518l-1.338-4.996-7.728 2.07ZM188.582 121.26a6 6 0 0 0-4.242 7.35l26.14 97.558 14.697 8.485-29.246-109.15a6 6 0 0 0-7.349-4.242ZM193.903 23.036c-6.288-4.334-14.366-5.987-22.32-3.855-14.404 3.859-22.952 18.664-19.092 33.068l2.07 7.727a3 3 0 0 1-2.121 3.674c-10.67 2.86-17.001 13.826-14.142 24.495 2.859 10.67 13.825 17.001 24.495 14.142l57.955-15.529c10.67-2.859 17.001-13.825 14.142-24.495-2.858-10.669-13.825-17-24.495-14.142A3 3 0 0 1 206.721 46l-2.07-7.727a27.013 27.013 0 0 0-2.98-7.004 143.524 143.524 0 0 1-14.925 7.585 10.003 10.003 0 0 1-7.317 8.263 9.991 9.991 0 0 1-9.262-2.21h-.004a9.954 9.954 0 0 1-2.98-4.856 10.031 10.031 0 0 1-.338-2.262c-.155-4.545 2.827-8.763 7.408-9.99a9.971 9.971 0 0 1 7.774 1.109 132.483 132.483 0 0 0 11.876-5.872Z"></path></g><g id="g-root-1.g-1_fr_qqaya01ejgyrn-stroke" data-item-order="-402708" transform="translate(93.592 328.066)"><path id="1.g-1_fr_qqaya01ejgyrn-stroke" fill="none" stroke="#3cc583" stroke-linecap="round" stroke-linejoin="round" stroke-miterlimit="4" stroke-width="2" d="m63.228 100.082-16.98-4.55a11.992 11.992 0 0 1-7.283-5.59L23.621 63.365a8 8 0 0 1 2.928-10.928l49.103-28.35a8.022 8.022 0 0 1 1.663-.724l.085-.124a12 12 0 0 1 10.925-5.14l5.613.49-1.493-2.587c-3.314-5.74-10.653-7.706-16.393-4.392l-60.05 34.67c-5.74 3.313-7.706 10.653-4.392 16.392l23.697 41.046 33.72 9.035-5.8-12.67Z"></path></g><g id="g-root-2.g-2_fr_qqaya01ejgyrp-stroke" data-item-order="-402704" transform="translate(133.081 336.113)"><path id="2.g-2_fr_qqaya01ejgyrp-stroke" fill="none" stroke="#92bd39" stroke-linecap="round" stroke-linejoin="round" stroke-miterlimit="4" stroke-width="2" d="M93.42 13.948a10.856 10.856 0 0 0-.222-.021l-44.36-3.881a12 12 0 0 0-10.925 5.14L12.122 52.582a12 12 0 0 0-1.033 11.808l18.906 41.305a12 12 0 0 0 6.3 6.084l42.362 3.374c-11.017-5.64-19.927-14.978-24.955-26.525l-6.762-.591a6 6 0 0 0-6.5 5.454c-.17 1.939-2.798 2.398-3.615.632l-14.98-32.39a6 6 0 0 1 .52-5.944L45.4 22.669a6 6 0 0 1 5.449-2.55l22.462 1.964a53.654 53.654 0 0 1 20.11-8.135Z"></path></g><g id="g-root-3.g-3_fr_hvaf481ejgwen-stroke" data-item-order="-402700" transform="translate(172.3 339.172)"><path id="3.g-3_fr_hvaf481ejgwen-stroke" fill="none" stroke="#1eabda" stroke-linecap="round" stroke-linejoin="round" stroke-miterlimit="4" stroke-width="2" d="M79.465 12.249a53.857 53.857 0 0 0-20.168-2.04c-29.71 2.599-51.687 28.79-49.088 58.5 1.824 20.854 15.271 37.897 33.4 45.307l23.628-2.089c-9.935-2.728-18.2-10.506-21.06-21.176-.059-.221-.115-.442-.17-.663a6.002 6.002 0 0 0-3.297 5.893c.252 2.883-2.77 4.826-5.082 3.085-9.595-7.223-16.203-18.333-17.332-31.238-2.112-24.14 15.744-45.42 39.884-47.532 2.972-.26 5.9-.218 8.756.102a35.8 35.8 0 0 1 10.529-8.149Z"></path></g><g id="g-root-4.g-4_fr_mb3x8o1ejgwe9-stroke" data-item-order="-402696" transform="translate(207.445 337.465)"><path id="4.g-4_fr_mb3x8o1ejgwe9-stroke" fill="none" stroke="#7f64ea" stroke-linecap="round" stroke-linejoin="round" stroke-miterlimit="4" stroke-width="2" d="M84.997 19.436c-8.766-7.999-21.299-11.5-33.611-8.2C32.18 16.38 20.784 36.122 25.93 55.326l.673 2.512c-12.508 6.229-19.33 20.59-15.573 34.61 4.288 16.004 20.738 25.501 36.742 21.213l4.926-1.32 48.103-12.89 4.927-1.32c16.004-4.287 25.501-20.738 21.213-36.742-3.757-14.019-16.845-23.045-30.792-22.186l-.673-2.512a36.047 36.047 0 0 0-3.564-8.645c-2.56 1.725-5.18 3.37-7.854 4.931a27.01 27.01 0 0 1 2.984 7.01l2.07 7.727a3 3 0 0 0 3.675 2.122c10.669-2.86 21.636 3.472 24.494 14.142 2.86 10.669-3.472 21.636-14.142 24.494l-57.955 15.53c-10.67 2.859-21.636-3.473-24.495-14.142-2.859-10.67 3.473-21.637 14.142-24.495a3 3 0 0 0 2.121-3.675l-2.07-7.727c-3.86-14.404 4.688-29.209 19.092-33.068 7.952-2.131 16.027-.48 22.314 3.85 2.975-1.66 5.88-3.432 8.709-5.309Zm-32.299 92.905.084.046m48.02-12.935.027-.008"></path></g><g id="g-root--1.g-0a_fr_mb3x8o1ejgweb-stroke" data-item-order="-402692" transform="translate(65 92)"><path id="-1.g-0a_fr_mb3x8o1ejgweb-stroke" fill="none" stroke="#484848" stroke-linecap="round" stroke-linejoin="round" stroke-miterlimit="4" stroke-width="2" d="M67.487 269.125C32.575 242.85 10 201.061 10 154 10 74.471 74.471 10 154 10s144 64.471 144 144c0 65.285-43.445 120.423-103 138.08a9.953 9.953 0 0 1-2.98-4.857 9.953 9.953 0 0 1 .184-5.792C247.038 265.016 287 214.175 287 154c0-73.454-59.546-133-133-133C80.546 21 21 80.546 21 154c0 45.16 22.508 85.063 56.918 109.103l-10.431 6.022Z"></path></g><g id="g-root-key_i0wow81ejiarv-stroke" data-item-order="0" transform="translate(377.226 130.414)"><path id="key_i0wow81ejiarv-stroke" fill="none" stroke="#3cc583" stroke-linecap="round" stroke-linejoin="round" stroke-miterlimit="4" stroke-width="2" d="M34.608 40.346a1.875 1.875 0 1 1-2.652-2.652 1.875 1.875 0 0 1 2.652 2.652ZM38.572 36.913l6.458-6.442a.75.75 0 0 0 .22-.531V28a.75.75 0 0 0-.75-.75h-1.95a.75.75 0 0 0-.516.206L35.39 33.73a6 6 0 1 0 3.184 3.182ZM28.9 23.65a8.259 8.259 0 0 1-1.2-4.581V17.2a6.45 6.45 0 1 0-12.9 0v1.868a8.272 8.272 0 0 1-1.2 4.582m1.2-5.391a8.534 8.534 0 0 0 6.45-2.955 8.532 8.532 0 0 0 6.45 2.955m-.768-.035a5.686 5.686 0 0 1-11.361 0M22.75 36.25h-12a10.5 10.5 0 0 1 18.543-6.75"></path></g><g id="g-root-lock_1upxfk81ejgw7d-stroke" data-item-order="0" transform="translate(161.096 149.941)"><path id="lock_1upxfk81ejgw7d-stroke" fill="none" stroke="gray" stroke-linecap="round" stroke-linejoin="round" stroke-miterlimit="4" stroke-width="2" d="M12 80.004v-60m8 16v28m8-32v36m8-40v44m8-48v52m48-28.016V20.004m-8 16v11.928m-8-15.928v17.968m-8-21.968V63.98m-8-39.976v52m-8-64v76m20-16h28s4 0 4 4V100s0 4-4 4H72s-4 0-4-4V76.004s0-4 4-4m9 16.248a5 5 0 1 0 10 0 5 5 0 0 0-10 0M96 66c0-5.523-4.477-10-10-10s-10 4.477-10 10v6h20Z"></path></g><g id="g-root-circ_qpoh6w1ejjpql-stroke" data-item-order="0" transform="translate(377.226 238.414)"><path id="circ_qpoh6w1ejjpql-stroke" fill="none" stroke="#92bd39" stroke-linecap="round" stroke-linejoin="round" stroke-miterlimit="4" stroke-width="2" d="M11.286 28c0 9.231 7.483 16.714 16.714 16.714 9.231 0 16.714-7.483 16.714-16.714 0-9.231-7.483-16.714-16.714-16.714-9.231 0-16.714 7.483-16.714 16.714m12.857-2.571a3.857 3.857 0 1 0 7.714 0 3.857 3.857 0 0 0-7.714 0M28 29.286v5.143"></path></g><g id="g-root-pres_hz19mw1ejjqpz-stroke" data-item-order="0" transform="translate(377.226 346.414)"><path id="pres_hz19mw1ejjqpz-stroke" fill="none" stroke="#1eabda" stroke-linecap="round" stroke-linejoin="round" stroke-miterlimit="4" stroke-width="2" d="M32.045 29.306a1.5 1.5 0 0 1-.68.39L24.5 31.502l1.806-6.866a1.5 1.5 0 0 1 .39-.68l9.295-9.294a3.783 3.783 0 0 1 5.35 0h0a3.783 3.783 0 0 1 0 5.35l-9.295 9.294ZM21.369 25.92a6.621 6.621 0 0 0 2.639 12.69 6.62 6.62 0 0 0 6.072-3.979m5.951-2.64c0 6.64-5.382 12.023-12.022 12.023-6.64 0-12.023-5.382-12.023-12.022 0-6.64 5.383-12.023 12.023-12.023"></path></g><g id="g-root-2_zrk8aw1ejjrb5-stroke" data-item-order="0" transform="translate(377.226 454.414)"><path id="2_zrk8aw1ejjrb5-stroke" fill="none" stroke="#7f64ea" stroke-linecap="round" stroke-linejoin="round" stroke-miterlimit="4" stroke-width="2" d="M24.474 23.743a3.735 3.735 0 1 0 0-7.47 3.735 3.735 0 0 0 0 7.47Zm15.901 2.095h2.277a1.518 1.518 0 0 1 1.518 1.518v15.177a1.518 1.518 0 0 1-1.518 1.518H30.511a1.518 1.518 0 0 1-1.518-1.518V27.356a1.518 1.518 0 0 1 1.518-1.518h2.276m6.072-2.155h-4.553c-.839 0-1.518.68-1.518 1.518v1.573c0 .839.68 1.518 1.518 1.518h4.553c.838 0 1.517-.68 1.517-1.518v-1.573c0-.838-.68-1.518-1.517-1.518ZM33.355 37.67l2.421 1.614 4.035-6.456m-3.24-11.463c.732-.798.732-1.915 0-2.713-2.016-2.234-6.598-6.702-12.096-6.702s-10.079 4.468-12.095 6.702c-.733.798-.733 1.915 0 2.713 2.016 2.394 6.597 6.703 12.095 6.703.547 0 1.085-.044 1.612-.126"></path></g></g></g></svg>
