<svg style="fill:none;stroke:none;fill-rule:evenodd;clip-rule:evenodd;stroke-linecap:round;stroke-linejoin:round;stroke-miterlimit:1.5;" version="1.1" xmlns="http://www.w3.org/2000/svg" xmlns:xlink="http://www.w3.org/1999/xlink" viewBox="26.94 49.5 637.31 359"><style class="text-font-style fontImports" data-font-family="Roboto">@import url('https://fonts.googleapis.com/css2?family=Roboto:wght@400;700&amp;display=block');</style><g id="items" style="isolation: isolate"><g id="blend" style="mix-blend-mode: normal"><g id="g-root-5.cu_sy_1uneri37toava-fill" data-item-order="-34519" transform="translate(207, 262)"></g><g id="g-root-4.cu_sy_1lrrr977tobnz-fill" data-item-order="-34516" transform="translate(279, 285.3359375)"></g><g id="g-root-3.cu_sy_1q7l9dn7tobnk-fill" data-item-order="-34512" transform="translate(243, 306.325927734375)"></g><g id="g-root-2.right-bucket_sy_1hby94r7tocg9-fill" data-item-order="-34508" transform="translate(339, 243)"></g><g id="g-root-1.left-bucket_sy_1hby94r7tocga-fill" data-item-order="-34504" transform="translate(171, 267)"></g><g id="g-root-text_1lsf73v7u0zd4-fill" data-item-order="0" transform="translate(351, 39)"></g><g id="g-root-tx_vrificat_1cxzwsb83pbf3-fill" data-item-order="0" transform="translate(411, 39)"><g id="tx_vrificat_1cxzwsb83pbf3-fill" stroke="none" fill="#484848"><g><text style="font: 20px Roboto, sans-serif; white-space: pre;" font-size="20px" font-family="Roboto, sans-serif"><tspan x="12" y="33.5" dominant-baseline="ideographic">Signature avec la </tspan><tspan x="12" y="57.5" dominant-baseline="ideographic">clé privée</tspan></text></g></g></g><g id="g-root-tx_dchiffre_1q9gf5n83p9u4-fill" data-item-order="0" transform="translate(3, 51.0001220703125)"><g id="tx_dchiffre_1q9gf5n83p9u4-fill" stroke="none" fill="#484848"><g><text style="font: 20px Roboto, sans-serif; white-space: pre;" font-size="20px" font-family="Roboto, sans-serif"><tspan x="23.94" y="45.5" dominant-baseline="ideographic">Chiffrement avec </tspan><tspan x="68.89" y="69.5" dominant-baseline="ideographic">clé publique</tspan></text></g></g></g><g id="g-root-obje_1lt1hvf7ttxji-fill" data-item-order="0" transform="translate(183, 63)"></g><g id="g-root-docu_1lux0aj7ty6fj-fill" data-item-order="0" transform="translate(351, 111)"></g><g id="g-root-tx_intgritd_1ltmx1783pame-fill" data-item-order="0" transform="translate(411, 99)"><g id="tx_intgritd_1ltmx1783pame-fill" stroke="none" fill="#484848"><g><text style="font: 20px Roboto, sans-serif; white-space: pre;" font-size="20px" font-family="Roboto, sans-serif"><tspan x="12" y="45.5" dominant-baseline="ideographic">Transfert du message et </tspan><tspan x="12" y="69.5" dominant-baseline="ideographic">de la signature</tspan></text></g></g></g><g id="g-root-tx_confiden_3cwcb83pceb-fill" data-item-order="0" transform="translate(15, 135)"><g id="tx_confiden_3cwcb83pceb-fill" stroke="none" fill="#484848"><g><text style="font: 20px Roboto, sans-serif; white-space: pre;" font-size="20px" font-family="Roboto, sans-serif"><tspan x="55.77" y="33.5" dominant-baseline="ideographic">Transfert du </tspan><tspan x="20.08" y="57.5" dominant-baseline="ideographic">message chiffré</tspan></text></g></g></g><g id="g-root-lock_1ltnmbf7tr5e4-fill" data-item-order="0" transform="translate(183, 135)"></g><g id="g-root-key_1cza01n7tpr7o-fill" data-item-order="0" transform="translate(351, 183)"></g><g id="g-root-tx_clpriveu_1ltmx1783pamd-fill" data-item-order="0" transform="translate(411, 171)"><g id="tx_clpriveu_1ltmx1783pamd-fill" stroke="none" fill="#484848"><g><text style="font: 20px Roboto, sans-serif; white-space: pre;" font-size="20px" font-family="Roboto, sans-serif"><tspan x="12" y="45.5" dominant-baseline="ideographic">Vérification de la signature </tspan><tspan x="12" y="69.5" dominant-baseline="ideographic">avec la clé publique</tspan></text></g></g></g><g id="g-root-tx_clpubliq_humwu383pa16-fill" data-item-order="0" transform="translate(27, 207)"><g id="tx_clpubliq_humwu383pa16-fill" stroke="none" fill="#484848"><g><text style="font: 20px Roboto, sans-serif; white-space: pre;" font-size="20px" font-family="Roboto, sans-serif"><tspan x="25.09" y="33.5" dominant-baseline="ideographic">Déchiffrement </tspan><tspan x="21.13" y="57.5" dominant-baseline="ideographic">avec clé privée</tspan></text></g></g></g><g id="g-root-key_1cwr83f7toa2r-fill" data-item-order="0" transform="translate(183, 207)"></g><g id="g-root-tx_chiffrem_18i6env83pc7c-fill" data-item-order="0" transform="translate(51, 351)"><g id="tx_chiffrem_18i6env83pc7c-fill" stroke="none" fill="#484848"><g><text style="font: 20px Roboto, sans-serif; white-space: pre;" font-size="20px" font-family="Roboto, sans-serif"><tspan x="13.23" y="33.5" dominant-baseline="ideographic">Chiffrement de </tspan><tspan x="38.76" y="57.5" dominant-baseline="ideographic">message</tspan></text></g></g></g><g id="g-root-tx_signatur_142zdmj83p9tt-fill" data-item-order="0" transform="translate(357, 339)"><g id="tx_signatur_142zdmj83p9tt-fill" stroke="none" fill="#484848"><g><text style="font: 20px Roboto, sans-serif; white-space: pre;" font-size="20px" font-family="Roboto, sans-serif"><tspan x="13.02" y="33.5" dominant-baseline="ideographic">Signature de message</tspan></text></g></g></g><g id="g-root-5.cu_sy_1uneri37toava-stroke" data-item-order="-34519" transform="translate(207, 262)"><g id="5.cu_sy_1uneri37toava-stroke" fill="none" stroke-linecap="round" stroke-linejoin="round" stroke-miterlimit="4" stroke="#484848" stroke-width="2"><g><path d="M 10 34L 10 48.126C 10 52.981 14.289 56.717 19.098 56.05L 82 47.336M 178 10L 178 26.396C 178 30.389 175.056 33.77 171.101 34.32L 106 43.361"></path></g></g></g><g id="g-root-4.cu_sy_1lrrr977tobnz-stroke" data-item-order="-34516" transform="translate(279, 285.3359375)"><g id="4.cu_sy_1lrrr977tobnz-stroke" fill="none" stroke-linecap="round" stroke-linejoin="round" stroke-miterlimit="4" stroke="#484848" stroke-width="2"><g><path d="M 34.086 22.000001C 34.086 28.627001 28.695 34.000001 22.043 34.000001C 15.392 34.000001 10 28.627001 10 22.000001C 10 15.373001 15.392 10.000001 22.043 10.000001C 28.695 10.000001 34.086 15.373001 34.086 22.000001ZM 28 22.000001C 28 25.314001 25.314 28.000001 22 28.000001C 18.686 28.000001 16 25.314001 16 22.000001C 16 18.686001 18.686 16.000001 22 16.000001C 25.314 16.000001 28 18.686001 28 22.000001Z"></path></g></g></g><g id="g-root-3.cu_sy_1q7l9dn7tobnk-stroke" data-item-order="-34512" transform="translate(243, 306.325927734375)"><g id="3.cu_sy_1q7l9dn7tobnk-stroke" fill="none" stroke-linecap="round" stroke-linejoin="round" stroke-miterlimit="4" stroke="#484848" stroke-width="2"><g><path d="M 22 78.674011L 94 78.674011C 94 78.674011 73.992 28.166011 65.959 10.058011C 63.725 11.952011 61.073 12.997011 58.043 12.997011C 54.986 12.997011 52.288 11.933011 50.072 10.000011C 42.047 28.114011 22 78.674011 22 78.674011ZM 18 78.674011C 13.582 78.674011 10 82.256011 10 86.674011L 10 88.674011C 10 89.779011 10.895 90.674011 12 90.674011L 104 90.674011C 105.105 90.674011 106 89.779011 106 88.674011L 106 86.674011C 106 82.256011 102.418 78.674011 98 78.674011L 18 78.674011Z"></path></g></g><g id="3.cu_sy_1q7l9dn7tobnk-stroke" fill="none" stroke-linecap="round" stroke-linejoin="round" stroke-miterlimit="4" stroke="#484848" stroke-width="2"><g><path d="M 43.859 64.535011L 43.859 70.191011L 50.272 76.605011C 50.623 75.292011 51.314 74.050011 52.344 73.020011C 53.374 71.989011 54.616 71.299011 55.929 70.948011L 49.516 64.535011L 43.859 64.535011ZM 62 71.744011C 60.823 71.064011 59.457 70.674011 58 70.674011C 56.543 70.674011 55.177 71.064011 54 71.744011C 51.609 73.127011 50 75.713011 50 78.674011L 66 78.674011C 66 75.713011 64.391 73.127011 62 71.744011ZM 58 49.674011L 58 55.474011M 78.503 58.171011L 74.404 62.270011M 37.497 58.171011L 41.596 62.270011M 64.747 53.463011L 64.003 56.257011M 44.94 56.073011L 46.4 58.587011M 71.031 56.064011L 69.59 58.567011M 51.224 53.473011L 51.978 56.267011"></path></g></g></g><g id="g-root-2.right-bucket_sy_1hby94r7tocg9-stroke" data-item-order="-34508" transform="translate(339, 243)"><g id="2.right-bucket_sy_1hby94r7tocg9-stroke" fill="none" stroke-linecap="round" stroke-linejoin="round" stroke-miterlimit="4" stroke="#92bd39" stroke-width="2"><g><path d="M 10 11.8C 10 10.806 10.806 10 11.8 10L 80.2 10C 81.194 10 82 10.806 82 11.8C 82 20.747 74.747 28 65.8 28L 26.2 28C 17.253 28 10 20.747 10 11.8Z"></path></g></g></g><g id="g-root-1.left-bucket_sy_1hby94r7tocga-stroke" data-item-order="-34504" transform="translate(171, 267)"><g id="1.left-bucket_sy_1hby94r7tocga-stroke" fill="none" stroke-linecap="round" stroke-linejoin="round" stroke-miterlimit="4" stroke="#1eabda" stroke-width="2"><g><path d="M 10 11.8C 10 10.806 10.806 10 11.8 10L 80.2 10C 81.194 10 82 10.806 82 11.8C 82 20.747 74.747 28 65.8 28L 26.2 28C 17.253 28 10 20.747 10 11.8Z"></path></g></g></g><g id="g-root-text_1lsf73v7u0zd4-stroke" data-item-order="0" transform="translate(351, 39)"><g id="text_1lsf73v7u0zd4-stroke" fill="none" stroke-linecap="round" stroke-linejoin="round" stroke-miterlimit="4" stroke="#484848" stroke-width="2"><g><path d="M 14.74 29.6L 30.780001 29.6C 30.780001 29.6 33.779999 29.6 33.779999 32.599998L 33.779999 44C 33.779999 44 33.779999 47 30.780001 47L 14.74 47C 14.74 47 11.74 47 11.74 44L 11.74 32.599998C 11.74 32.599998 11.74 29.6 14.74 29.6M 14.639999 29.648001L 14.639999 26.120001C 14.639999 21.635448 18.275448 18 22.76 18C 27.244553 18 30.879999 21.635448 30.879999 26.120001L 30.879999 29.648001M 19.279999 38.299999L 21.6 40.620003L 26.24 35.98M 44.259998 18C 44.260002 21.313709 46.946293 24 50.260002 24C 53.573711 24 56.260002 21.313709 56.260002 18C 56.260002 14.686292 53.573711 12 50.260002 12C 46.946293 12 44.260002 14.686292 44.260002 18M 44.259998 50C 44.260002 53.313709 46.946293 56 50.260002 56C 53.573711 56 56.260002 53.313709 56.260002 50C 56.260002 46.686295 53.573711 44 50.260002 44C 46.946293 44 44.260002 46.686295 44.260002 50M 44.259998 21L 37.260002 25M 44.259998 48L 38.260002 45"></path></g></g></g><g id="g-root-tx_vrificat_1cxzwsb83pbf3-stroke" data-item-order="0" transform="translate(411, 39)"></g><g id="g-root-tx_dchiffre_1q9gf5n83p9u4-stroke" data-item-order="0" transform="translate(3, 51.0001220703125)"></g><g id="g-root-obje_1lt1hvf7ttxji-stroke" data-item-order="0" transform="translate(183, 63)"><g id="obje_1lt1hvf7ttxji-stroke" fill="none" stroke-linecap="round" stroke-linejoin="round" stroke-miterlimit="4" stroke="#484848" stroke-width="2"><g><path d="M 10 10M 43.457001 27.33618L 39.9702 24.5917L 31.617599 35.203598M 10 10M 39.640602 32.183399L 36.153603 29.43886M 26.127138 42.177345C 28.053108 43.694031 30.843996 43.361881 32.360207 41.435539C 33.876415 39.509193 33.543579 36.718391 31.616861 35.202656C 29.690893 33.68597 26.900005 34.01812 25.383795 35.944462C 23.867584 37.870804 24.20042 40.661613 26.127138 42.177345M 10 10M 50.847599 50.849602L 17.14794 50.849602L 17.14794 17.1499L 50.847599 17.1499L 50.847599 50.849602ZM 10 10M 17.15234 17.15258L 11.694582 17.15258L 11.694582 11.694826L 17.15234 11.694826L 17.15234 17.15258ZM 10 10M 17.15234 56.305199L 11.694582 56.305199L 11.694582 50.847401L 17.15234 50.847401L 17.15234 56.305199ZM 10 10M 17.15234 36.729L 11.694582 36.729L 11.694582 31.2712L 17.15234 31.2712L 17.15234 36.729ZM 10 10M 56.3046 17.15258L 50.847 17.15258L 50.847 11.694824L 56.3046 11.694824L 56.3046 17.15258ZM 10 10M 56.3046 36.728798L 50.847 36.728798L 50.847 31.271L 56.3046 31.271L 56.3046 36.728798ZM 10 10M 56.3046 56.305199L 50.847 56.305199L 50.847 50.847401L 56.3046 50.847401L 56.3046 56.305199ZM 10 10M 36.726601 17.15258L 31.270201 17.15258L 31.270201 11.696282L 36.726601 11.696282L 36.726601 17.15258ZM 10 10M 36.726601 56.305199L 31.270201 56.305199L 31.270201 50.848801L 36.726601 50.848801L 36.726601 56.305199Z"></path></g></g></g><g id="g-root-docu_1lux0aj7ty6fj-stroke" data-item-order="0" transform="translate(351, 111)"><g id="docu_1lux0aj7ty6fj-stroke" fill="none" stroke-linecap="round" stroke-linejoin="round" stroke-miterlimit="4" stroke="#484848" stroke-width="2"><g><path d="M 57 54L 55 50.132L 55 41C 55.084 37.444 50.838001 34.274002 47 31M 50.037998 45L 44.936001 39.785999C 44.316936 39.141663 43.400085 38.878433 42.533497 39.096237C 41.666908 39.314037 40.983467 39.979477 40.742607 40.839943C 40.501755 41.700409 40.740417 42.623959 41.368004 43.260002L 47 49L 47 52C 47.306267 53.789154 47.987881 55.493187 49 57M 11 14L 13 17.868L 13 27C 12.916 30.556 17.162001 33.725998 21 37M 17.962 23L 23.063999 28.214001C 23.683064 28.858339 24.599916 29.121571 25.466503 28.903767C 26.333092 28.685965 27.016537 28.020525 27.257393 27.160059C 27.498249 26.299595 27.259584 25.376043 26.632 24.740002L 21 19L 21 16C 20.693735 14.210846 20.012121 12.506812 19 11M 21 26.104L 21 56C 21 56.552284 21.447716 57 22 57L 44 57M 32 15L 25 15M 47 41.896L 47 30M 36 41L 25 41M 43 35L 25 35M 34 47L 25 47M 51 19C 51 23.418278 47.418278 27 43 27C 38.581722 27 35 23.418278 35 19C 35 14.581722 38.581722 11 43 11M 51 13L 43.708 20.292C 43.520393 20.480083 43.265656 20.585789 43 20.585789C 42.734344 20.585789 42.479607 20.480083 42.292 20.292L 40 18"></path></g></g></g><g id="g-root-tx_intgritd_1ltmx1783pame-stroke" data-item-order="0" transform="translate(411, 99)"></g><g id="g-root-tx_confiden_3cwcb83pceb-stroke" data-item-order="0" transform="translate(15, 135)"></g><g id="g-root-lock_1ltnmbf7tr5e4-stroke" data-item-order="0" transform="translate(183, 135)"><g id="lock_1ltnmbf7tr5e4-stroke" fill="none" stroke-linecap="round" stroke-linejoin="round" stroke-miterlimit="4" stroke="#484848" stroke-width="2"><g><path d="M 41 41.001999L 55 41.001999C 55 41.001999 57 41.001999 57 43.001999L 57 55C 57 55 57 57 55 57L 41 57C 41 57 39 57 39 55L 39 43.001999C 39 43.001999 39 41.001999 41 41.001999M 45.5 49.125999C 45.5 50.506714 46.619289 51.625999 48 51.625999C 49.380711 51.625999 50.5 50.506714 50.5 49.125999C 50.5 47.745289 49.380711 46.625999 48 46.625999C 46.619289 46.625999 45.5 47.745289 45.5 49.125999M 53 38C 53 35.238579 50.761425 33 48 33C 45.238575 33 43 35.238579 43 38L 43 41L 53 41ZM 35 39L 14 39C 12.343145 39 11 37.656853 11 36L 11 14C 11 12.343145 12.343145 11 14 11L 50 11C 51.656857 11 53 12.343145 53 14L 53 29M 52.133999 11.892L 32 28L 11.866 11.892"></path></g></g></g><g id="g-root-key_1cza01n7tpr7o-stroke" data-item-order="0" transform="translate(351, 183)"><g id="key_1cza01n7tpr7o-stroke" fill="none" stroke-linecap="round" stroke-linejoin="round" stroke-miterlimit="4" stroke="#484848" stroke-width="2"><g><path d="M 42.810001 50.462002C 41.833622 51.438122 40.250832 51.437984 39.27462 50.461689C 38.298416 49.485397 38.298416 47.902603 39.27462 46.926311C 40.250832 45.95002 41.833622 45.949879 42.810001 46.925999C 43.785519 47.902821 43.785519 49.48518 42.810001 50.462002ZM 10 10M 48.096001 45.883999L 56.706001 37.293999C 56.894161 37.106426 56.999943 36.851685 57 36.585999L 57 34C 57 33.447716 56.552284 33 56 33L 53.400002 33C 53.144054 32.999924 52.89782 33.097984 52.712002 33.274002L 43.854 41.641998C 40.328316 40.148323 36.238579 41.362339 34.098885 44.53775C 31.959192 47.713158 32.369568 51.959496 35.077744 54.666393C 37.785919 57.373291 42.032452 57.78167 45.206848 55.64048C 48.381248 53.49929 49.593338 49.408978 48.098 45.883999ZM 16.5 19.5C 16.5 24.19442 20.30558 28 25 28C 29.69442 28 33.5 24.19442 33.5 19.5C 33.5 14.80558 29.69442 11 25 11C 20.30558 11 16.5 14.80558 16.5 19.5ZM 27 45L 11 45C 10.999902 39.114559 14.680733 33.857452 20.211155 31.844276C 25.741575 29.831099 31.940599 31.491751 35.723999 36"></path></g></g></g><g id="g-root-tx_clpriveu_1ltmx1783pamd-stroke" data-item-order="0" transform="translate(411, 171)"></g><g id="g-root-tx_clpubliq_humwu383pa16-stroke" data-item-order="0" transform="translate(27, 207)"></g><g id="g-root-key_1cwr83f7toa2r-stroke" data-item-order="0" transform="translate(183, 207)"><g id="key_1cwr83f7toa2r-stroke" fill="none" stroke-linecap="round" stroke-linejoin="round" stroke-miterlimit="4" stroke="#484848" stroke-width="2"><g><path d="M 25.428572 35.714287C 25.428572 33.82074 26.963596 32.285713 28.857143 32.285713L 52.857143 32.285713C 54.750694 32.285713 56.285713 33.82074 56.285713 35.714287L 56.285713 52.857143C 56.285713 54.750694 54.750694 56.285713 52.857143 56.285713M 28.857143 32.285713L 28.857143 23.714287C 28.857145 17.086868 34.229729 11.714287 40.857143 11.714287C 47.484562 11.714287 52.857143 17.086868 52.857143 23.714287L 52.857143 32.285713M 11.714286 49.428574C 11.714286 53.215668 14.784333 56.285713 18.571428 56.285713C 22.358524 56.285713 25.428572 53.215668 25.428572 49.428574C 25.428572 45.641476 22.358524 42.57143 18.571428 42.57143C 14.784333 42.57143 11.714286 45.641476 11.714286 49.428574M 25.428572 49.428574L 42.57143 49.428574L 42.57143 56.285713M 34 49.428574L 34 56.285713"></path></g></g></g><g id="g-root-tx_chiffrem_18i6env83pc7c-stroke" data-item-order="0" transform="translate(51, 351)"></g><g id="g-root-tx_signatur_142zdmj83p9tt-stroke" data-item-order="0" transform="translate(357, 339)"></g></g></g></svg>
