<svg style="fill:none;stroke:none;fill-rule:evenodd;clip-rule:evenodd;stroke-linecap:round;stroke-linejoin:round;stroke-miterlimit:1.5;" version="1.1" xmlns="http://www.w3.org/2000/svg" xmlns:xlink="http://www.w3.org/1999/xlink" viewBox="27.48 145 868.45 349.07"><style class="text-font-style fontImports" data-font-family="Roboto">@import url('https://fonts.googleapis.com/css2?family=Roboto:wght@400;700&amp;display=block');</style><g id="items" style="isolation: isolate"><g id="blend" style="mix-blend-mode: normal"><g id="g-root-3.cu_sy_1hf2vws5bqln2-fill" data-item-order="-136102" transform="translate(243, 381.37890625)"/><g id="g-root-2.cu_sy_1czvuvg5bqj9j-fill" data-item-order="-136098" transform="translate(291, 389.5859375)"/><g id="g-root-1.cu_sy_1czvuvg5bqj9k-fill" data-item-order="-136094" transform="translate(327, 398.958984375)"/><g id="g-root-0.cu_sy_18k2cr05bqk1t-fill" data-item-order="-136090" transform="translate(351, 278.9976806640625)"/><g id="g-root--1.vector_sy_18k2cr05bqk1u-fill" data-item-order="-136085" transform="translate(255.00021362304688, 303)"/><g id="g-root--1.vector_1_sy_zofci45bqkuj-fill" data-item-order="-136081" transform="translate(567, 159)"/><g id="g-root--1.vector_2_sy_zofci45bqkuk-fill" data-item-order="-136077" transform="translate(256.0002136230469, 159)"/><g id="g-root-tx_prventio_hxrt3g5bqk21-fill" data-item-order="0" transform="translate(51, 135)"><g id="tx_prventio_hxrt3g5bqk21-fill" stroke="none" fill="#3cc583"><g><text style="font: bold 20px Roboto, sans-serif; white-space: pre;" font-weight="bold" font-size="20px" font-family="Roboto, sans-serif"><tspan x="15.27" y="33.5" dominant-baseline="ideographic">Prévention du </tspan><tspan x="89.16" y="57.5" dominant-baseline="ideographic">Rejeu</tspan></text></g></g></g><g id="g-root-3_hz0r9o5brzlx-fill" data-item-order="0" transform="translate(195, 135)"/><g id="g-root-logi_v9usjw5btekm-fill" data-item-order="0" transform="translate(663, 135)"/><g id="g-root-tx_varitdal_dhyaz05bqkua-fill" data-item-order="0" transform="translate(723, 135)"><g id="tx_varitdal_dhyaz05bqkua-fill" stroke="none" fill="#de8431"><g><text style="font: bold 20px Roboto, sans-serif; white-space: pre;" font-weight="bold" font-size="20px" font-family="Roboto, sans-serif"><tspan x="12" y="33.5" dominant-baseline="ideographic">Variété </tspan><tspan x="12" y="57.5" dominant-baseline="ideographic">d'Algorithmes</tspan></text></g></g></g><g id="g-root-tx_utiliseu_v8ludo5bqlmu-fill" data-item-order="0" transform="translate(15, 195)"><g id="tx_utiliseu_v8ludo5bqlmu-fill" stroke="none" fill="#484848"><g><text style="font: 15px Roboto, sans-serif; white-space: pre;" font-size="15px" font-family="Roboto, sans-serif"><tspan x="12.48" y="30.5" dominant-baseline="ideographic">Utilise un compteur pour </tspan><tspan x="23.95" y="48.5" dominant-baseline="ideographic">empêcher les attaques </tspan><tspan x="28.96" y="66.5" dominant-baseline="ideographic">par rejeu de message.</tspan></text></g></g></g><g id="g-root-tx_offreune_mdlb7w5bqj9r-fill" data-item-order="0" transform="translate(723, 195)"><g id="tx_offreune_mdlb7w5bqj9r-fill" stroke="none" fill="#484848"><g><text style="font: 15px Roboto, sans-serif; white-space: pre;" font-size="15px" font-family="Roboto, sans-serif"><tspan x="12" y="27.5" dominant-baseline="ideographic">Offre une gamme </tspan><tspan x="12" y="45.5" dominant-baseline="ideographic">d'algorithmes, </tspan><tspan x="12" y="63.5" dominant-baseline="ideographic">nécessitant une </tspan><tspan x="12" y="81.5" dominant-baseline="ideographic">compréhension experte.</tspan></text></g></g></g><g id="g-root-tx_attestat_dhyaz05bqkub-fill" data-item-order="0" transform="translate(39, 279)"><g id="tx_attestat_dhyaz05bqkub-fill" stroke="none" fill="#1eabda"><g><text style="font: bold 20px Roboto, sans-serif; white-space: pre;" font-weight="bold" font-size="20px" font-family="Roboto, sans-serif"><tspan x="19.25" y="33.5" dominant-baseline="ideographic">Attestations et </tspan><tspan x="29.35" y="57.5" dominant-baseline="ideographic">Métadonnées</tspan></text></g></g></g><g id="g-root-cc_dhyaz05bqkuc-fill" data-item-order="0" transform="translate(195, 279)"/><g id="g-root-tx_permetun_hxrt3g5bqk20-fill" data-item-order="0" transform="translate(51, 339)"><g id="tx_permetun_hxrt3g5bqk20-fill" stroke="none" fill="#484848"><g><text style="font: 15px Roboto, sans-serif; white-space: pre;" font-size="15px" font-family="Roboto, sans-serif"><tspan x="71.3" y="30.5" dominant-baseline="ideographic">Permet un </tspan><tspan x="38.95" y="48.5" dominant-baseline="ideographic">enregistrement </tspan><tspan x="16.06" y="66.5" dominant-baseline="ideographic">préalable avec des </tspan><tspan x="15.66" y="84.5" dominant-baseline="ideographic">attestations et des </tspan><tspan x="78.81" y="102.5" dominant-baseline="ideographic">données.</tspan></text></g></g></g><g id="g-root-3.cu_sy_1hf2vws5bqln2-stroke" data-item-order="-136102" transform="translate(243, 381.37890625)"><g id="3.cu_sy_1hf2vws5bqln2-stroke" fill="none" stroke-linecap="round" stroke-linejoin="round" stroke-miterlimit="4" stroke="#1eabda" stroke-width="2"><g><path d="M 196.3805 10.0065C 91.5195 12.857 10 34.4603 10 60.6875C 10 88.8541 104.0202 111.6875 220 111.6875C 335.9798 111.6875 430 88.8541 430 60.6875C 430 34.4401 348.3552 12.8238 243.3777 10C 244.3157 12.7324 245.3029 15.4819 246.3617 18.2079C 323.2938 21.2777 382 37.561 382 57.1875C 382 79.0028 309.4701 96.6875 220 96.6875C 130.5299 96.6875 58 79.0028 58 57.1875C 58 37.5784 116.6021 21.3066 193.4337 18.2161C 194.4783 15.49 195.4533 12.7399 196.3805 10.0065Z"/></g></g></g><g id="g-root-2.cu_sy_1czvuvg5bqj9j-stroke" data-item-order="-136098" transform="translate(291, 389.5859375)"><g id="2.cu_sy_1czvuvg5bqj9j-stroke" fill="none" stroke-linecap="round" stroke-linejoin="round" stroke-miterlimit="4" stroke="#de8431" stroke-width="2"><g><path d="M 145.4337 10.0082C 68.6021 13.098701 10 29.3705 10 48.979601C 10 70.7949 82.5299 88.479601 172 88.479601C 261.4701 88.479601 334 70.7949 334 48.979601C 334 29.3531 275.2938 13.0698 198.3617 10C 199.5958 13.1774 200.9272 16.323 202.391 19.372701C 257.2975 22.664301 298 34.671401 298 48.979601C 298 65.8243 241.5879 79.479601 172 79.479601C 102.4121 79.479601 46 65.8243 46 48.979601C 46 34.684301 86.6291 22.686 141.4603 19.381701C 142.9028 16.332601 144.2157 13.1866 145.4337 10.0082Z"/></g></g></g><g id="g-root-1.cu_sy_1czvuvg5bqj9k-stroke" data-item-order="-136094" transform="translate(327, 398.958984375)"><g id="1.cu_sy_1czvuvg5bqj9k-stroke" fill="none" stroke-linecap="round" stroke-linejoin="round" stroke-miterlimit="4" stroke="#3cc583" stroke-width="2"><g><path d="M 105.4603 10.0089C 50.6291 13.3132 10 25.3115 10 39.6069C 10 56.4516 66.4121 70.1069 136 70.1069C 205.5879 70.1069 262 56.4516 262 39.6069C 262 25.2986 221.2975 13.2915 166.391 10C 167.5421 12.3981 168.7751 14.737 170.1072 16.9854C 209.6677 20.2872 237.9999 29.1705 237.9999 39.6108C 237.9999 52.8656 192.3327 63.6108 135.9995 63.6108C 79.6662 63.6108 33.999 52.8656 33.999 39.6108C 33.999 29.1787 62.2868 20.3012 101.7986 16.9932C 103.1108 14.7459 104.3257 12.4074 105.4603 10.0089Z"/></g></g></g><g id="g-root-0.cu_sy_18k2cr05bqk1t-stroke" data-item-order="-136090" transform="translate(351, 278.9976806640625)"><g id="0.cu_sy_18k2cr05bqk1t-stroke" fill="none" stroke-linecap="round" stroke-linejoin="round" stroke-miterlimit="4" stroke="#de8431" stroke-width="2"><g><path d="M 91.5808 102.596741C 97.1439 85.233841 101.7895 70.734741 111.8222 70.734741C 121.8442 70.734741 126.4906 85.103441 132.0744 102.371141C 135.7476 113.730341 139.8265 126.344041 146.1082 136.947241C 185.6687 140.249041 214.0009 149.132341 214.0009 159.572641C 214.0009 172.827441 168.3337 183.572641 112.0004 183.572641C 55.6672 183.572641 10 172.827441 10 159.572641C 10 149.140541 38.2878 140.263041 77.7996 136.955041C 83.9442 126.430941 87.9571 113.906341 91.5808 102.596741ZM 50.209961 159.573202C 62.828761 156.495602 71.497761 147.664502 77.799661 136.955402M 146.108161 136.947602C 152.445561 147.540602 161.184161 156.370402 173.792561 159.573202"/></g></g><g id="0.cu_sy_18k2cr05bqk1t-stroke" fill="none" stroke-linecap="round" stroke-linejoin="round" stroke-miterlimit="4" stroke="#de8431" stroke-width="2"><g><path d="M 94 28.003315C 93.998234 37.94575 102.057675 46.006622 112.00011 46.006622C 121.942545 46.006622 130.001986 37.94575 130.000221 28.003315C 130.001986 18.06088 121.942545 10.000008 112.00011 10.000008C 102.057675 10.000008 93.998234 18.06088 94 28.003315"/></g></g></g><g id="g-root--1.vector_sy_18k2cr05bqk1u-stroke" data-item-order="-136085" transform="translate(255.00021362304688, 303)"><g id="-1.vector_sy_18k2cr05bqk1u-stroke" fill="none" stroke-linecap="round" stroke-linejoin="round" stroke-miterlimit="4" stroke="#484848" stroke-width="2"><style>.fillAsStrokeColor-mfhfrg5vy51c { fill:#484848; }</style><g><path d="M 10 10L 22 10C 35.2548 10 46 20.8093 46 34.1433L 46 107"/><path d="M 43 107C 43.000001 108.656857 44.343147 110.000003 46.000001 110.000003C 47.656855 110.000003 49.000001 108.656857 49.000001 107.000003C 49.000001 105.343149 47.656855 104.000003 46.000001 104.000003C 44.343147 104.000003 43.000001 105.343149 43.000001 107.000003Z" stroke-dasharray="none" class="fillAsStrokeColor-mfhfrg5vy51c"/></g></g></g><g id="g-root--1.vector_1_sy_zofci45bqkuj-stroke" data-item-order="-136081" transform="translate(567, 159)"><g id="-1.vector_1_sy_zofci45bqkuj-stroke" fill="none" stroke-linecap="round" stroke-linejoin="round" stroke-miterlimit="4" stroke="#484848" stroke-width="2"><style>.fillAsStrokeColor-mfhfrg5vy51d { fill:#484848; }</style><g><path d="M 94 10L 46.3025 10C 26.2532 10 10 26.1178 10 46L 10 251"/><path d="M 7 251C 7 252.656861 8.343146 254.000007 10 254.000007C 11.656854 254.000007 13 252.656861 13 251.000007C 13 249.343153 11.656854 248.000007 10 248.000007C 8.343146 248.000007 7 249.343153 7 251.000007Z" stroke-dasharray="none" class="fillAsStrokeColor-mfhfrg5vy51d"/></g></g></g><g id="g-root--1.vector_2_sy_zofci45bqkuk-stroke" data-item-order="-136077" transform="translate(256.0002136230469, 159)"><g id="-1.vector_2_sy_zofci45bqkuk-stroke" fill="none" stroke-linecap="round" stroke-linejoin="round" stroke-miterlimit="4" stroke="#484848" stroke-width="2"><style>.fillAsStrokeColor-mfhfrg5vy51e { fill:#484848; }</style><g><path d="M 10 10L 57 10C 76.8822 10 93 26.1177 93 46L 93 266"/><path d="M 90 266C 90.000002 267.656862 91.343148 269.000008 93.000002 269.000008C 94.656857 269.000008 96.000002 267.656862 96.000002 266.000008C 96.000002 264.343153 94.656857 263.000008 93.000002 263.000008C 91.343148 263.000008 90.000002 264.343153 90.000002 266.000008Z" stroke-dasharray="none" class="fillAsStrokeColor-mfhfrg5vy51e"/></g></g></g><g id="g-root-tx_prventio_hxrt3g5bqk21-stroke" data-item-order="0" transform="translate(51, 135)"/><g id="g-root-3_hz0r9o5brzlx-stroke" data-item-order="0" transform="translate(195, 135)"><g id="3_hz0r9o5brzlx-stroke" fill="none" stroke-linecap="round" stroke-linejoin="round" stroke-miterlimit="4" stroke="#3cc583" stroke-width="2"><g><path d="M 22 23C 22 29.627417 27.372583 35 34 35C 40.627419 35 46 29.627417 46 23C 46 16.372583 40.627419 11 34 11C 27.372583 11 22 16.372583 22 23M 25.515999 31.483999L 42.486 14.514M 51 29L 56.110001 32.400002C 56.666138 32.771049 57.000099 33.395443 57 34.063999L 57 54C 57 55.656857 55.656857 57 54 57L 14 57C 12.343145 57 11 55.656857 11 54L 11 34.07C 10.99789 33.399319 11.332088 32.772224 11.89 32.400002L 17 29M 18 51L 28 43L 40 43L 50 51M 11.23 33.139999L 24 41M 56.77 33.139999L 44 41"/></g></g></g><g id="g-root-logi_v9usjw5btekm-stroke" data-item-order="0" transform="translate(663, 135)"><g id="logi_v9usjw5btekm-stroke" fill="none" stroke-linecap="round" stroke-linejoin="round" stroke-miterlimit="4" stroke="#de8431" stroke-width="2"><g><path d="M 57 31L 57 39C 57 40.104568 56.104568 41 55 41L 37 41M 27 38.200001L 27 13C 27 11.895431 27.89543 11 29 11L 37 11M 47 31L 47 41L 37 41L 37 11M 57 31L 57 31L 27 31L 27 21L 37 21M 11 52.25C 32 59.25 25 59.25 49 47.25C 47.61729 45.391094 45.221519 44.592503 43.000004 45.250004L 34.368 47.984001M 11 41.125999L 17 41.125999C 21.706001 41.125999 25 45.125999 26 45.125999L 33 45.125999C 35 45.125999 35 49.125999 33 49.125999L 22 49.125999M 17.826 41.167999C 17.826 41.167999 19.959999 48.040001 11 48.040001M 39.753998 46.278L 42.271999 50.706001M 32.276001 49.125999L 34.521999 54.773998M 26.200001 45.125999C 25.811981 46.431107 25.811981 47.8209 26.200001 49.126003M 43.459885 15.80773L 53.266407 13.85015L 55.223988 23.656673L 45.417465 25.614252Z"/></g></g></g><g id="g-root-tx_varitdal_dhyaz05bqkua-stroke" data-item-order="0" transform="translate(723, 135)"/><g id="g-root-tx_utiliseu_v8ludo5bqlmu-stroke" data-item-order="0" transform="translate(15, 195)"/><g id="g-root-tx_offreune_mdlb7w5bqj9r-stroke" data-item-order="0" transform="translate(723, 195)"/><g id="g-root-tx_attestat_dhyaz05bqkub-stroke" data-item-order="0" transform="translate(39, 279)"/><g id="g-root-cc_dhyaz05bqkuc-stroke" data-item-order="0" transform="translate(195, 279)"><g id="cc_dhyaz05bqkuc-stroke" fill="none" stroke-linecap="round" stroke-linejoin="round" stroke-miterlimit="4" stroke="#1eabda" stroke-width="2"><g><path d="M 37 57L 55 57C 56.104568 57 57 56.104568 57 55L 57 22.950001C 57 16.350197 51.649803 11 45.049999 11L 21 11C 19.895432 11 19 11.895431 19 13L 19 27M 47 11.16L 47 19C 47 20.104568 47.895432 21 49 21L 56.84 21M 11 45C 11 51.627419 16.372583 57 23 57C 29.627417 57 35 51.627419 35 45C 35 38.372581 29.627417 33 23 33C 16.372583 33 11 38.372581 11 45ZM 21 49C 18.793596 48.993412 17.00659 47.206406 17 45L 17 45C 17.00659 42.793598 18.793596 41.006592 21 41M 29 49C 26.793596 48.993412 25.00659 47.206406 25 45L 25 45C 25.00659 42.793598 26.793596 41.006592 29 41"/></g></g></g><g id="g-root-tx_permetun_hxrt3g5bqk20-stroke" data-item-order="0" transform="translate(51, 339)"/></g></g></svg>