<svg xmlns="http://www.w3.org/2000/svg" style="fill:none;stroke:none;fill-rule:evenodd;clip-rule:evenodd;stroke-linecap:round;stroke-linejoin:round;stroke-miterlimit:1.5" viewBox="24 120 494 386"><style data-font-family="Roboto">@import url(https://fonts.googleapis.com/css2?family=Roboto:wght@400;700&amp;display=block);</style><g id="items" style="isolation:isolate"><g id="blend" style="mix-blend-mode:normal"><g id="g-root-tx_utilisat_mgq74b1wuhp1k-fill" data-item-order="0" transform="translate(207 147)"><text id="tx_utilisat_mgq74b1wuhp1k-fill" fill="#3cc583" stroke="none" font-family="Roboto, sans-serif" font-size="20" style="font:20px Roboto,sans-serif;white-space:pre"><tspan x="17.21" y="33.5" dominant-baseline="ideographic">Utilisation </tspan><tspan x="16.66" y="57.5" dominant-baseline="ideographic">autonome</tspan></text></g><g id="g-root-tx_interact_qwjp8r1wuho9b-fill" data-item-order="0" transform="translate(177 255)"><text id="tx_interact_qwjp8r1wuho9b-fill" fill="#e55753" stroke="none" font-family="Roboto, sans-serif" font-size="20" style="font:20px Roboto,sans-serif;white-space:pre"><tspan x="14.1" y="33.5" dominant-baseline="ideographic">Interaction guidée</tspan></text></g><g id="g-root-tx_dmonstra_qwjp8r1wuho9a-fill" data-item-order="0" transform="translate(171 339)"><text id="tx_dmonstra_qwjp8r1wuho9a-fill" fill="#de8431" stroke="none" font-family="Roboto, sans-serif" font-size="20" style="font:20px Roboto,sans-serif;white-space:pre"><tspan x="13.08" y="33.5" dominant-baseline="ideographic">Démonstration des </tspan><tspan x="31.09" y="57.5" dominant-baseline="ideographic">fonctionnalités</tspan></text></g><g id="g-root-tx_introduc_zrk8ej1wuhqmd-fill" data-item-order="0" transform="translate(135 447)"><text id="tx_introduc_zrk8ej1wuhqmd-fill" fill="#e0cb15" stroke="none" font-family="Roboto, sans-serif" font-size="20" style="font:20px Roboto,sans-serif;white-space:pre"><tspan x="14.33" y="33.5" dominant-baseline="ideographic">Introduction au mécanisme</tspan></text></g><g id="g-root--1.cu_sy_8dqbv1wuhp8u-stroke" data-item-order="-188922" transform="translate(15 111)"><path id="-1.cu_sy_8dqbv1wuhp8u-stroke" fill="none" stroke="#484848" stroke-linecap="round" stroke-linejoin="round" stroke-miterlimit="4" stroke-width="2" d="M10 394v-72h72v72H10Zm0-72 24-24h72l-24 24H10Zm24-24v-72h72v72H34Zm0-72 24-24h72l-24 24H34Zm24-24v-72h72v72H58Zm0-72 24-24h72l-24 24H58Zm24-24V34h72v72H82Zm0-72 24-24h72l-24 24H82Z"/></g><g id="g-root--1.cu_1_sy_1ly19xn1wuhqmn-stroke" data-item-order="-188918" transform="translate(339 111)"><path id="-1.cu_1_sy_1ly19xn1wuhqmn-stroke" fill="none" stroke="#484848" stroke-linecap="round" stroke-linejoin="round" stroke-miterlimit="4" stroke-width="2" d="M178 322v72h-72v-72h72Zm0 0-24-24H82l24 24h72Zm-24-96v72H82v-72h72Zm0 0-24-24H58l24 24h72Zm-24-96v72H58v-72h72Zm0 0-24-24H34l24 24h72Zm-24-24V34H34v72h72Zm0-72L82 10H10l24 24h72Z"/></g><g id="g-root-1.cu_sy_1hiu8wb1wuho94-stroke" data-item-order="-188914" transform="translate(87 399)"><path id="1.cu_sy_1hiu8wb1wuho94-stroke" fill="none" stroke="#e0cb15" stroke-linecap="round" stroke-linejoin="round" stroke-miterlimit="4" stroke-width="2" d="M10 34v72h348V34H10Zm348 0-24-24H34L10 34h348Z"/></g><g id="g-root-2.cu_sy_1hiu8wb1wuho95-stroke" data-item-order="-188910" transform="translate(111 303)"><path id="2.cu_sy_1hiu8wb1wuho95-stroke" fill="none" stroke="#de8431" stroke-linecap="round" stroke-linejoin="round" stroke-miterlimit="4" stroke-width="2" d="M10 106V34h300v72H10Zm300-72-24-24H34L10 34h300Z"/></g><g id="g-root-3.cu_sy_1d30qrv1wuhp1e-stroke" data-item-order="-188906" transform="translate(135 207)"><path id="3.cu_sy_1d30qrv1wuhp1e-stroke" fill="none" stroke="#e55753" stroke-linecap="round" stroke-linejoin="round" stroke-miterlimit="4" stroke-width="2" d="M10 34v72h252V34H10Zm252 0-24-24H34L10 34h252Z"/></g><g id="g-root-4.cu_sy_147dqiz1wuhpu3-stroke" data-item-order="-188902" transform="translate(159 111)"><path id="4.cu_sy_147dqiz1wuhpu3-stroke" fill="none" stroke="#3cc583" stroke-linecap="round" stroke-linejoin="round" stroke-miterlimit="4" stroke-width="2" d="M10 34v72h204V34H10Zm204 0-24-24H34L10 34h204Z"/></g><g id="g-root-48px_146r9fv1wuq3up-stroke" data-item-order="0" transform="translate(99 147)"><path id="48px_146r9fv1wuq3up-stroke" fill="none" stroke="#969696" stroke-linecap="round" stroke-linejoin="round" stroke-miterlimit="4" stroke-width="2" d="M15.072 30.179c0-5.697 2.717-10.483 7.939-10.483 5.222 0 7.938 4.786 7.938 10.483v7.094c0 5.697-2.844 10.61-7.938 10.61-5.095 0-7.939-4.913-7.939-10.61V30.18Zm34.838 17.8V19.55L36.295 39.738h19.02"/></g><g id="g-root-gaug_i0wozv1wuhptt-stroke" data-item-order="0" transform="translate(375 147)"><path id="gaug_i0wozv1wuhptt-stroke" fill="none" stroke="#3cc583" stroke-linecap="round" stroke-linejoin="round" stroke-miterlimit="4" stroke-width="2" d="M47.4 56.5c-2.6-4.8-7.6-8.2-13.4-8.2-5.8 0-11 3.4-13.6 8.2m13.5-11.6a8.2 8.2 0 1 0 0-16.4 8.2 8.2 0 0 0 0 16.4Zm-8.1-7c.8 0 5.5-.2 8.1-4.2 2.6 4 7.3 4.2 8.1 4.2m-20.4 6s4.2-1 4.2-7.2m20.4 7.2s-4.2-1-4.2-7.2M55.2 23.3l-6.2 4c-3.2-5-8.8-8.2-15-8.2-6.2 0-11.8 3.4-15 8.2l-6.2-4c4.4-7 12.4-11.6 21.2-11.6 8.8 0 16.6 4.4 21.2 11.6ZM40.4 23.7l5.8-12.2"/></g><g id="g-root-48px_qtfeyz1wunc3w-stroke" data-item-order="0" transform="translate(75 243)"><path id="48px_qtfeyz1wunc3w-stroke" fill="none" stroke="#969696" stroke-linecap="round" stroke-linejoin="round" stroke-miterlimit="4" stroke-width="2" d="M15.072 30.178c0-5.696 2.717-10.483 7.939-10.483 5.222 0 7.938 4.787 7.938 10.483v7.095c0 5.696-2.844 10.609-7.938 10.609-5.095 0-7.939-4.913-7.939-10.61V30.18Zm22.05-3.11c-.12-2.409 1.36-7.358 7.943-7.358 6.583 0 7.591 4.887 7.363 7.647-.251 3.043-2.156 6.15-10.227 6.15 7.513 0 10.925 2.055 10.925 7.617 0 4.809-4.25 6.766-8.134 6.766-2.79-.024-8.372-1.603-8.372-7.728"/></g><g id="g-root-wave_1hdujd71wuj3ep-stroke" data-item-order="0" transform="translate(399 243)"><path id="wave_1hdujd71wuj3ep-stroke" fill="none" stroke="#e55753" stroke-linecap="round" stroke-linejoin="round" stroke-miterlimit="4" stroke-width="2" d="M54.068 56.038c0-.193 0-.969.194-1.163l.969-1.744c.388-.582.582-1.357.582-2.133V38.786c0-1.745-5.622-4.264-11.05-3.101-.775 0-1.55.775-1.55 1.55v7.754l-.582 1.357-2.326-1.55c-.776-.582-1.939-.388-2.52.387-.582.582-.582 1.55 0 2.326 1.163 1.745 3.489 4.846 4.458 5.428l1.939 1.357c.387.387.775.775.775 1.357v.387m-8.176-20.741c1.163-5.621-.581-8.335-7.947-8.335-1.745 0-4.459 1.357-6.591 7.366-.582 1.357-1.745 2.52-3.296 2.907-3.489.582-5.815 3.684-6.59 7.754-.97 5.04 2.326 10.08 7.366 11.05M28.27 25.5a7 7 0 1 0 0-14 7 7 0 0 0 0 14Zm3.871 24.045c-2.326-2.326-2.326-6.01 0-8.142m-4.458 12.31c-4.459-4.459-4.459-11.825 0-16.477"/></g><g id="g-root-48px_1lsf3bf1wux6vg-stroke" data-item-order="0" transform="translate(51 339)"><path id="48px_1lsf3bf1wux6vg-stroke" fill="none" stroke="#969696" stroke-linecap="round" stroke-linejoin="round" stroke-miterlimit="4" stroke-width="2" d="M15.072 30.178c0-5.696 2.717-10.483 7.939-10.483 5.222 0 7.938 4.787 7.938 10.483v7.095c0 5.696-2.844 10.609-7.938 10.609-5.095 0-7.939-4.913-7.939-10.61V30.18Zm21.76-2.663c0-4.62 3.224-7.82 7.606-7.82 7.269 0 9.748 7.094 4.983 13.403L37.33 47.418h16.62"/></g><g id="g-root-sear_dgpyff1wusyki-stroke" data-item-order="0" transform="translate(423 339)"><path id="sear_dgpyff1wusyki-stroke" fill="none" stroke="#de8431" stroke-linecap="round" stroke-linejoin="round" stroke-miterlimit="4" stroke-width="2" d="M34.162 57H17a4 4 0 0 1-4-4V15m38-4H17a4 4 0 1 0 0 8h32a2 2 0 0 1 2 2v13.052M17 15h32M33 44.058a9.058 9.058 0 1 0 18.116 0 9.058 9.058 0 0 0-18.116 0ZM55 57l-6.496-6.496"/></g><g id="g-root-48px_zntk7f1wukhl6-stroke" data-item-order="0" transform="translate(27 435)"><path id="48px_zntk7f1wukhl6-stroke" fill="none" stroke="#969696" stroke-linecap="round" stroke-linejoin="round" stroke-miterlimit="4" stroke-width="2" d="m37.842 23.377 8.455-3.193V47.95M15.072 30.178c0-5.696 2.717-10.483 7.939-10.483 5.222 0 7.938 4.787 7.938 10.483v7.095c0 5.696-2.844 10.609-7.938 10.609-5.095 0-7.939-4.913-7.939-10.61V30.18Z"/></g><g id="g-root-1_4gppqj1wuj404-stroke" data-item-order="0" transform="translate(447 435)"><path id="1_4gppqj1wuj404-stroke" fill="none" stroke="#e0cb15" stroke-linecap="round" stroke-linejoin="round" stroke-miterlimit="4" stroke-width="2" d="M24.4 35.9c0-5.2 4.4-9.6 9.6-9.6 5.2 0 9.6 4.4 9.6 9.6 0 2.6-1 5-2.8 6.8-1.6 1.6-2.6 3.8-2.6 6.2v2c0 2-1.6 3.6-3.6 3.6h-1.2c-2 0-3.6-1.6-3.6-3.6v-2c0-2.4-1-4.6-2.6-6.2-1.8-1.8-2.8-4.2-2.8-6.8ZM34 54.5v2m-4.367-9.2h8.71M52.5 44.8a4 4 0 1 0 0-8 4 4 0 0 0 0 8ZM14.9 30.5c0-10.4 8.6-19 19-19s19 8.6 19 19M46.3 22.3l5.6-5.6m-37 24.7a.6.6 0 1 0 0-1.2m0 1.2a.6.6 0 1 1 0-1.2"/></g></g></g></svg>