<svg xmlns="http://www.w3.org/2000/svg" style="fill:none;stroke:none;fill-rule:evenodd;clip-rule:evenodd;stroke-linecap:round;stroke-linejoin:round;stroke-miterlimit:1.5" viewBox="55.14 133 696.86 525"><style data-font-family="Roboto">@import url(https://fonts.googleapis.com/css2?family=Roboto:wght@400;700&amp;display=block);</style><g id="items" style="isolation:isolate"><g id="blend" style="mix-blend-mode:normal"><g id="g-root-tx_signatur_8vwqu01e9eive-fill" data-item-order="0" transform="translate(381 123)"><text id="tx_signatur_8vwqu01e9eive-fill" fill="#484848" stroke="none" font-family="Roboto, sans-serif" font-size="20" font-weight="bold" style="font:700 20px Roboto,sans-serif;white-space:pre"><tspan x="12.8" y="34" dominant-baseline="ideographic">Signature envoyée au </tspan><tspan x="75.55" y="58" dominant-baseline="ideographic">serveur</tspan></text></g><g id="g-root-tx_serveurg_m7d97c1e9ehag-fill" data-item-order="0" transform="translate(39 147)"><text id="tx_serveurg_m7d97c1e9ehag-fill" fill="#484848" stroke="none" font-family="Roboto, sans-serif" font-size="20" font-weight="bold" style="font:700 20px Roboto,sans-serif;white-space:pre"><tspan x="16.14" y="34" dominant-baseline="ideographic">Serveur génère un défi</tspan></text></g><g id="g-root-tx_leserveu_hrjr2w1e9ei2p-fill" data-item-order="0" transform="translate(51 183)"><text id="tx_leserveu_hrjr2w1e9ei2p-fill" fill="#484848" stroke="none" font-family="Roboto, sans-serif" font-size="15" style="font:15px Roboto,sans-serif;white-space:pre"><tspan x="17.23" y="28" dominant-baseline="ideographic">Le serveur crée une valeur </tspan><tspan x="20.11" y="46" dominant-baseline="ideographic">aléatoire pour l'utilisateur</tspan></text></g><g id="g-root-tx_lasignat_4g38pk1e9ejnn-fill" data-item-order="0" transform="translate(381 183)"><text id="tx_lasignat_4g38pk1e9ejnn-fill" fill="#484848" stroke="none" font-family="Roboto, sans-serif" font-size="15" style="font:15px Roboto,sans-serif;white-space:pre"><tspan x="14.82" y="28" dominant-baseline="ideographic">La signature et les détails du </tspan><tspan x="15.4" y="46" dominant-baseline="ideographic">défi sont envoyés au serveur</tspan></text></g><g id="g-root-tx_disposit_1480h5k1e9ocgb-fill" data-item-order="0" transform="translate(213 531)"><text id="tx_disposit_1480h5k1e9ocgb-fill" fill="#484848" stroke="none" font-family="Roboto, sans-serif" font-size="20" font-weight="bold" style="font:700 20px Roboto,sans-serif;white-space:pre"><tspan x="11.91" y="34" dominant-baseline="ideographic">Dispositif signe le défi</tspan></text></g><g id="g-root-tx_serveurv_8xs9941e9pqtc-fill" data-item-order="0" transform="translate(567 531)"><text id="tx_serveurv_8xs9941e9pqtc-fill" fill="#484848" stroke="none" font-family="Roboto, sans-serif" font-size="20" font-weight="bold" style="font:700 20px Roboto,sans-serif;white-space:pre"><tspan x="15.35" y="34" dominant-baseline="ideographic">Serveur vérifie la </tspan><tspan x="49.09" y="58" dominant-baseline="ideographic">signature</tspan></text></g><g id="g-root-tx_ledispos_zs6z141e9od8l-fill" data-item-order="0" transform="translate(207 567)"><text id="tx_ledispos_zs6z141e9od8l-fill" fill="#484848" stroke="none" font-family="Roboto, sans-serif" font-size="15" style="font:15px Roboto,sans-serif;white-space:pre"><tspan x="27.3" y="31" dominant-baseline="ideographic">Le dispositif de l'utilisateur </tspan><tspan x="13.63" y="49" dominant-baseline="ideographic">utilise sa clé privée pour signer </tspan><tspan x="96.34" y="67" dominant-baseline="ideographic">le défi</tspan></text></g><g id="g-root-tx_leserveu_259081e9prm1-fill" data-item-order="0" transform="translate(567 591)"><text id="tx_leserveu_259081e9prm1-fill" fill="#484848" stroke="none" font-family="Roboto, sans-serif" font-size="15" style="font:15px Roboto,sans-serif;white-space:pre"><tspan x="16.44" y="31" dominant-baseline="ideographic">Le serveur utilise la clé </tspan><tspan x="14.3" y="49" dominant-baseline="ideographic">publique pour vérifier la </tspan><tspan x="60.97" y="67" dominant-baseline="ideographic">signature</tspan></text></g><g id="g-root-0.g-0_fr_1d30x5k1e9d53h-stroke" data-item-order="-479195" transform="translate(63.211 291)"><path id="0.g-0_fr_1d30x5k1e9d53h-stroke" fill="none" stroke="gray" stroke-dasharray="5.0, 7.0" stroke-linecap="round" stroke-linejoin="round" stroke-miterlimit="4" stroke-width="2" d="M177.578 100c-3.076 43.592-39.414 78-83.789 78-44.374 0-80.712-34.408-83.789-78m335.578-12c-3.076-43.592-39.414-78-83.789-78-44.374 0-80.712 34.408-83.789 78m335.578 12c-3.076 43.592-39.414 78-83.789 78-44.374 0-80.712-34.408-83.789-78m335.578-12c-3.076-43.592-39.414-78-83.789-78-44.374 0-80.712 34.408-83.789 78"/></g><g id="g-root-1.g-1_1_fr_1d30x5k1e9d53j-stroke" data-item-order="-479184" transform="translate(57 234)"><path id="1.g-1_1_fr_1d30x5k1e9d53j-stroke" fill="none" stroke="#4e88e7" stroke-linecap="round" stroke-linejoin="round" stroke-miterlimit="4" stroke-width="2" d="M34 151c0 36.45 29.55 66 66 66s66-29.55 66-66-29.55-66-66-66-66 29.55-66 66m-24 0a6 6 0 1 0 12 0 6 6 0 0 0-12 0"/><path stroke="#4e88e7" stroke-miterlimit="4" stroke-width="2" d="M109 19a9 9 0 1 1-18 0 9 9 0 0 1 18 0Z"/></g><g id="g-root-2.g-2_fr_18ntw481e9d2q1-stroke" data-item-order="-479172" transform="translate(225 309)"><path id="2.g-2_fr_18ntw481e9d2q1-stroke" fill="none" stroke="#3cc583" stroke-linecap="round" stroke-linejoin="round" stroke-miterlimit="4" stroke-width="2" d="M34 76c0 36.45 29.55 66 66 66s66-29.55 66-66-29.55-66-66-66-66 29.55-66 66m-24 0a6 6 0 1 0 12 0 6 6 0 0 0-12 0"/><path stroke="#3cc583" stroke-miterlimit="4" stroke-width="2" d="M109 208a9 9 0 1 1-18 0 9 9 0 0 1 18 0Z"/></g><g id="g-root-3.g-3_1_fr_1480dzs1e9d3ib-stroke" data-item-order="-479160" transform="translate(393 234)"><path id="3.g-3_1_fr_1480dzs1e9d3ib-stroke" fill="none" stroke="#1eabda" stroke-linecap="round" stroke-linejoin="round" stroke-miterlimit="4" stroke-width="2" d="M34 151c0 36.45 29.55 66 66 66s66-29.55 66-66-29.55-66-66-66-66 29.55-66 66m-24 0a6 6 0 1 0 12 0 6 6 0 0 0-12 0"/><path stroke="#1eabda" stroke-miterlimit="4" stroke-width="2" d="M109 19a9 9 0 1 1-18 0 9 9 0 0 1 18 0Z"/></g><g id="g-root-4.g-4_fr_1480dzs1e9d3id-stroke" data-item-order="-479148" transform="translate(561 309)"><path id="4.g-4_fr_1480dzs1e9d3id-stroke" fill="none" stroke="#92bd39" stroke-linecap="round" stroke-linejoin="round" stroke-miterlimit="4" stroke-width="2" d="M34 76c0 36.45 29.55 66 66 66s66-29.55 66-66-29.55-66-66-66-66 29.55-66 66m-24 0a6 6 0 1 0 12 0 6 6 0 0 0-12 0m168 0a6 6 0 1 0 12 0 6 6 0 0 0-12 0"/><path stroke="#92bd39" stroke-miterlimit="4" stroke-width="2" d="M109 208a9 9 0 1 1-18 0 9 9 0 0 1 18 0Z"/></g><g id="g-root--1.line_fr_vcddqw1e9d4b3-stroke" data-item-order="-479135" transform="translate(147 252)"><path id="-1.line_fr_vcddqw1e9d4b3-stroke" fill="none" stroke="#484848" stroke-linecap="round" stroke-linejoin="round" stroke-miterlimit="4" stroke-width="2" d="M10 67V10"/></g><g id="g-root--1.line_1_fr_zs6vvc1e9d4ap-stroke" data-item-order="-479131" transform="translate(483 252)"><path id="-1.line_1_fr_zs6vvc1e9d4ap-stroke" fill="none" stroke="#484848" stroke-linecap="round" stroke-linejoin="round" stroke-miterlimit="4" stroke-width="2" d="M10 67V10"/></g><g id="g-root--1.line_2_fr_zs6vvc1e9d4ar-stroke" data-item-order="-479127" transform="translate(315 441)"><path id="-1.line_2_fr_zs6vvc1e9d4ar-stroke" fill="none" stroke="#484848" stroke-linecap="round" stroke-linejoin="round" stroke-miterlimit="4" stroke-width="2" d="M10 67V10"/></g><g id="g-root--1.line_3_fr_zs6vvc1e9d4at-stroke" data-item-order="-479123" transform="translate(651 441)"><path id="-1.line_3_fr_zs6vvc1e9d4at-stroke" fill="none" stroke="#484848" stroke-linecap="round" stroke-linejoin="round" stroke-miterlimit="4" stroke-width="2" d="M10 67V10"/></g><g id="g-root-brok_4g38pk1e9ejno-stroke" data-item-order="0" transform="translate(117 345)"><path id="brok_4g38pk1e9ejno-stroke" fill="none" stroke="#4e88e7" stroke-linecap="round" stroke-linejoin="round" stroke-miterlimit="4" stroke-width="2" d="M63.75 46.25c0 5.525-10.635 10-23.75 10s-23.75-4.475-23.75-10m0-25v37.5c0 5.525 10.635 10 23.75 10s23.75-4.475 23.75-10v-37.5M37.5 17.5l-3.75 5 17.423 7.575-3.858 13.193 6.453 11.13M16.25 21.25c0 5.523 10.633 10 23.75 10s23.75-4.477 23.75-10-10.633-10-23.75-10-23.75 4.477-23.75 10m47.5 12.5c0 5.525-10.635 10-23.75 10s-23.75-4.475-23.75-10"/></g><g id="g-root-aler_1lpxa6w1e9ljbj-stroke" data-item-order="0" transform="translate(285 345)"><path id="aler_1lpxa6w1e9ljbj-stroke" fill="none" stroke="#3cc583" stroke-linecap="round" stroke-linejoin="round" stroke-miterlimit="4" stroke-width="2" d="M53.125 61.25h0m0-5.625v-7.5m2.095-7.5a2.375 2.375 0 0 0-4.19 0L38.39 64.72c-.38.722-.35 1.59.077 2.285a2.37 2.37 0 0 0 2.018 1.12h25.28a2.37 2.37 0 0 0 2.018-1.12 2.308 2.308 0 0 0 .077-2.285ZM31.79 63.5a9.957 9.957 0 0 1-6.165 2.125h-5c-5.523 0-10-4.477-10-10v-27.5a2.5 2.5 0 0 1 2.5-2.5h20a2.5 2.5 0 0 1 2.5 2.5V52.5m-22.5-41.875h20v15h-20Zm6.237 7.23v1.275m7.5-1.275v1.275"/></g><g id="g-root-sync_1lto4pk1e9li4k-stroke" data-item-order="0" transform="translate(453 345)"><path id="sync_1lto4pk1e9li4k-stroke" fill="none" stroke="#1eabda" stroke-linecap="round" stroke-linejoin="round" stroke-miterlimit="4" stroke-width="2" d="M25 35v-5.622A9.372 9.372 0 0 1 34.375 20h4.375M30 30.003l-5 5-5-5m15-13.75 3.75 3.75-3.75 3.75m-17.5 45H35m-8.75-5v5m-15-12.5h30M37.5 43.75a3.75 3.75 0 0 1 3.75 3.75v12.28a3.863 3.863 0 0 1-3.75 3.97H15a3.865 3.865 0 0 1-3.75-3.967V47.5A3.75 3.75 0 0 1 15 43.75Zm11.25-27.497c0 2.76 4.477 5 10 5s10-2.24 10-5c0-2.762-4.477-5-10-5s-10 2.238-10 5Zm0 12.497c0 2.75 4.478 5 10 5s10-2.25 10-5m-20-6.25c0 2.75 4.478 5 10 5s10-2.25 10-5m0-6.25V35c0 2.75-4.478 5-10 5s-10-2.25-10-5V16.25"/></g><g id="g-root-chec_940wyg1e9ocg6-stroke" data-item-order="0" transform="translate(621 345)"><path id="chec_940wyg1e9ocg6-stroke" fill="none" stroke="#92bd39" stroke-linecap="round" stroke-linejoin="round" stroke-miterlimit="4" stroke-width="2" d="M54.875 28h-30v40h30V28Zm5 14h8m-8 10h8m-8 10h5.5c1.5 0 2.5-1 2.5-2.5v-25c0-1.5-1-2.5-2.5-2.5h-5.5m-33.75 9.25h28.75M26.125 55h28.75m-35-13h-8m8 10h-8m8 10h-5.5c-1.5 0-2.5-1-2.5-2.5v-25c0-1.5 1-2.5 2.5-2.5h5.5m16.25-17.5 3.75 3.5 6.25-6"/></g></g></g></svg>