<svg xmlns="http://www.w3.org/2000/svg" style="fill:none;stroke:none;fill-rule:evenodd;clip-rule:evenodd;stroke-linecap:round;stroke-linejoin:round;stroke-miterlimit:1.5" viewBox="50.62 133 886.21 573"><style data-font-family="Roboto">@import url(https://fonts.googleapis.com/css2?family=Roboto:wght@400;700&amp;display=block);</style><g id="items" style="isolation:isolate"><g id="blend" style="mix-blend-mode:normal"><g id="g-root-tx_laclpubl_1q6czwo1cvhx5b-fill" data-item-order="0" transform="translate(375 231)"><text id="tx_laclpubl_1q6czwo1cvhx5b-fill" fill="#484848" stroke="none" font-family="Roboto, sans-serif" font-size="15" style="font:15px Roboto,sans-serif;white-space:pre"><tspan x="24.45" y="28" dominant-baseline="ideographic">La clé publique est préparée </tspan><tspan x="13.25" y="46" dominant-baseline="ideographic">pour la transmission au serveur</tspan></text></g><g id="g-root-tx_leserveu_1lqjhs81cvhxxl-fill" data-item-order="0" transform="translate(700 207)"><text id="tx_leserveu_1lqjhs81cvhxxl-fill" fill="#484848" stroke="none" font-family="Roboto, sans-serif" font-size="15" style="font:15px Roboto,sans-serif;white-space:pre"><tspan x="40.05" y="31" dominant-baseline="ideographic">Le serveur stocke la clé </tspan><tspan x="33.37" y="49" dominant-baseline="ideographic">publique dans sa base de </tspan><tspan x="13.66" y="67" dominant-baseline="ideographic">données associée à l'utilisateur</tspan></text></g><g id="g-root-tx_ledispos_4g2z7s1cvhyx9-fill" data-item-order="0" transform="translate(33 207)"><text id="tx_ledispos_4g2z7s1cvhyx9-fill" fill="#484848" stroke="none" font-family="Roboto, sans-serif" font-size="15" style="font:15px Roboto,sans-serif;white-space:pre"><tspan x="17.62" y="31" dominant-baseline="ideographic">Le dispositif de l'utilisateur crée </tspan><tspan x="34.6" y="49" dominant-baseline="ideographic">une clé publique et une clé </tspan><tspan x="102.76" y="67" dominant-baseline="ideographic">privée</tspan></text></g><g id="g-root-tx_prparerl_9h3c1cvhzpi-fill" data-item-order="0" transform="translate(387 171)"><text id="tx_prparerl_9h3c1cvhzpi-fill" fill="#484848" stroke="none" font-family="Roboto, sans-serif" font-size="20" font-weight="bold" style="font:700 20px Roboto,sans-serif;white-space:pre"><tspan x="39.41" y="34" dominant-baseline="ideographic">Préparer la Clé </tspan><tspan x="12.11" y="58" dominant-baseline="ideographic">Publique pour l'Envoi</tspan></text></g><g id="g-root-tx_laclpubl_1uux8eg1cvcd8u-fill" data-item-order="0" transform="translate(543 639)"><text id="tx_laclpubl_1uux8eg1cvcd8u-fill" fill="#484848" stroke="none" font-family="Roboto, sans-serif" font-size="15" style="font:15px Roboto,sans-serif;white-space:pre"><tspan x="14.52" y="31" dominant-baseline="ideographic">La clé publique est envoyée au </tspan><tspan x="15.66" y="49" dominant-baseline="ideographic">serveur avec des informations </tspan><tspan x="60.53" y="67" dominant-baseline="ideographic">supplémentaires</tspan></text></g><g id="g-root-tx_gnrerune_dbpzgo1cvhy4k-fill" data-item-order="0" transform="translate(45 147)"><text id="tx_gnrerune_dbpzgo1cvhy4k-fill" fill="#484848" stroke="none" font-family="Roboto, sans-serif" font-size="20" font-weight="bold" style="font:700 20px Roboto,sans-serif;white-space:pre"><tspan x="15.19" y="34" dominant-baseline="ideographic">Générer une Paire de </tspan><tspan x="89.78" y="58" dominant-baseline="ideographic">Clés</tspan></text></g><g id="g-root-tx_stockerl_1um6i141cvhx4w-fill" data-item-order="0" transform="translate(700 123)"><text id="tx_stockerl_1um6i141cvhx4w-fill" fill="#484848" stroke="none" font-family="Roboto, sans-serif" font-size="20" font-weight="bold" style="font:700 20px Roboto,sans-serif;white-space:pre"><tspan x="12.38" y="34" dominant-baseline="ideographic">Stocker la Clé Publique </tspan><tspan x="46.13" y="58" dominant-baseline="ideographic">dans la Base de </tspan><tspan x="26.14" y="82" dominant-baseline="ideographic">Données du Serveur</tspan></text></g><g id="g-root-tx_stockerl_1lwsbt41cvaway-fill" data-item-order="0" transform="translate(219 579)"><text id="tx_stockerl_1lwsbt41cvaway-fill" fill="#484848" stroke="none" font-family="Roboto, sans-serif" font-size="20" font-weight="bold" style="font:700 20px Roboto,sans-serif;white-space:pre"><tspan x="12.81" y="34" dominant-baseline="ideographic">Stocker la Clé Privée</tspan></text></g><g id="g-root-tx_envoyerl_1uux8eg1cvaz2n-fill" data-item-order="0" transform="translate(537 579)"><text id="tx_envoyerl_1uux8eg1cvaz2n-fill" fill="#484848" stroke="none" font-family="Roboto, sans-serif" font-size="20" font-weight="bold" style="font:700 20px Roboto,sans-serif;white-space:pre"><tspan x="17.25" y="34" dominant-baseline="ideographic">Envoyer la Clé Publique </tspan><tspan x="74.33" y="58" dominant-baseline="ideographic">au Serveur</tspan></text></g><g id="g-root-tx_laclpriv_1hgytoo1cvax37-fill" data-item-order="0" transform="translate(207 615)"><text id="tx_laclpriv_1hgytoo1cvax37-fill" fill="#484848" stroke="none" font-family="Roboto, sans-serif" font-size="15" style="font:15px Roboto,sans-serif;white-space:pre"><tspan x="24.31" y="31" dominant-baseline="ideographic">La clé privée est stockée en </tspan><tspan x="17.42" y="49" dominant-baseline="ideographic">toute sécurité sur le dispositif </tspan><tspan x="69.81" y="67" dominant-baseline="ideographic">de l'utilisateur</tspan></text></g><g id="g-root-0.g-0_fr_14804i01cvgirp-stroke" data-item-order="-628943" transform="translate(63.211 339)"><path id="0.g-0_fr_14804i01cvgirp-stroke" fill="none" stroke="gray" stroke-dasharray="5.0, 7.0" stroke-linecap="round" stroke-linejoin="round" stroke-miterlimit="4" stroke-width="2" d="M177.578 100c-3.076 43.592-39.414 78-83.789 78-44.374 0-80.712-34.408-83.789-78m335.578-12c-3.076-43.592-39.414-78-83.789-78-44.374 0-80.712 34.408-83.789 78m335.578 12c-3.076 43.592-39.414 78-83.789 78-44.374 0-80.712-34.408-83.789-78m335.578-12c-3.076-43.592-39.414-78-83.789-78-44.374 0-80.712 34.408-83.789 78m335.578 12c-3.076 43.592-39.415 78-83.789 78-44.375 0-80.713-34.408-83.789-78"/></g><g id="g-root-1.g-1_1_fr_14804i01cvgirr-stroke" data-item-order="-628930" transform="translate(57 282)"><path id="1.g-1_1_fr_14804i01cvgirr-stroke" fill="none" stroke="#4e88e7" stroke-linecap="round" stroke-linejoin="round" stroke-miterlimit="4" stroke-width="2" d="M34 151c0 36.45 29.55 66 66 66s66-29.55 66-66-29.55-66-66-66-66 29.55-66 66m-24 0a6 6 0 1 0 12 0 6 6 0 0 0-12 0"/><path stroke="#4e88e7" stroke-miterlimit="4" stroke-width="2" d="M109 19a9 9 0 1 1-18 0 9 9 0 0 1 18 0Z"/></g><g id="g-root-2.g-2_fr_zs6mdk1cvgjk1-stroke" data-item-order="-628918" transform="translate(225 357)"><path id="2.g-2_fr_zs6mdk1cvgjk1-stroke" fill="none" stroke="#1eabda" stroke-linecap="round" stroke-linejoin="round" stroke-miterlimit="4" stroke-width="2" d="M34 76c0 36.45 29.55 66 66 66s66-29.55 66-66-29.55-66-66-66-66 29.55-66 66m-24 0a6 6 0 1 0 12 0 6 6 0 0 0-12 0"/><path stroke="#1eabda" stroke-miterlimit="4" stroke-width="2" d="M109 208a9 9 0 1 1-18 0 9 9 0 0 1 18 0Z"/></g><g id="g-root-3.g-3_1_fr_zs6mdk1cvgjk3-stroke" data-item-order="-628906" transform="translate(393 282)"><path id="3.g-3_1_fr_zs6mdk1cvgjk3-stroke" fill="none" stroke="#3cc583" stroke-linecap="round" stroke-linejoin="round" stroke-miterlimit="4" stroke-width="2" d="M34 151c0 36.45 29.55 66 66 66s66-29.55 66-66-29.55-66-66-66-66 29.55-66 66m-24 0a6 6 0 1 0 12 0 6 6 0 0 0-12 0"/><path stroke="#3cc583" stroke-miterlimit="4" stroke-width="2" d="M109 19a9 9 0 1 1-18 0 9 9 0 0 1 18 0Z"/></g><g id="g-root-4.g-4_fr_qwjm4o1cvgkct-stroke" data-item-order="-628894" transform="translate(561 357)"><path id="4.g-4_fr_qwjm4o1cvgkct-stroke" fill="none" stroke="#92bd39" stroke-linecap="round" stroke-linejoin="round" stroke-miterlimit="4" stroke-width="2" d="M34 76c0 36.45 29.55 66 66 66s66-29.55 66-66-29.55-66-66-66-66 29.55-66 66m-24 0a6 6 0 1 0 12 0 6 6 0 0 0-12 0"/><path stroke="#92bd39" stroke-miterlimit="4" stroke-width="2" d="M109 208a9 9 0 1 1-18 0 9 9 0 0 1 18 0Z"/></g><g id="g-root-5.g-5_1_fr_qwjm4o1cvgkcv-stroke" data-item-order="-628882" transform="translate(729 282)"><path id="5.g-5_1_fr_qwjm4o1cvgkcv-stroke" fill="none" stroke="#e0cb15" stroke-linecap="round" stroke-linejoin="round" stroke-miterlimit="4" stroke-width="2" d="M34 151c0 36.45 29.55 66 66 66s66-29.55 66-66-29.55-66-66-66-66 29.55-66 66m-24 0a6 6 0 1 0 12 0 6 6 0 0 0-12 0m168 0a6 6 0 1 0 12 0 6 6 0 0 0-12 0"/><path stroke="#e0cb15" stroke-miterlimit="4" stroke-width="2" d="M109 19a9 9 0 1 1-18 0 9 9 0 0 1 18 0Z"/></g><g id="g-root--1.line_fr_mgq4081cvgl55-stroke" data-item-order="-628869" transform="translate(147 300)"><path id="-1.line_fr_mgq4081cvgl55-stroke" fill="none" stroke="#484848" stroke-linecap="round" stroke-linejoin="round" stroke-miterlimit="4" stroke-width="2" d="M10 67V10"/></g><g id="g-root--1.line_1_fr_mgq4081cvgl57-stroke" data-item-order="-628865" transform="translate(483 300)"><path id="-1.line_1_fr_mgq4081cvgl57-stroke" fill="none" stroke="#484848" stroke-linecap="round" stroke-linejoin="round" stroke-miterlimit="4" stroke-width="2" d="M10 67V10"/></g><g id="g-root--1.line_2_fr_mgq4081cvgl59-stroke" data-item-order="-628861" transform="translate(819 300)"><path id="-1.line_2_fr_mgq4081cvgl59-stroke" fill="none" stroke="#484848" stroke-linecap="round" stroke-linejoin="round" stroke-miterlimit="4" stroke-width="2" d="M10 67V10"/></g><g id="g-root--1.line_3_fr_mgq4081cvgl5b-stroke" data-item-order="-628857" transform="translate(315 489)"><path id="-1.line_3_fr_mgq4081cvgl5b-stroke" fill="none" stroke="#484848" stroke-linecap="round" stroke-linejoin="round" stroke-miterlimit="4" stroke-width="2" d="M10 67V10"/></g><g id="g-root--1.line_4_fr_hrjhl41cvhxc9-stroke" data-item-order="-628853" transform="translate(651 489)"><path id="-1.line_4_fr_hrjhl41cvhxc9-stroke" fill="none" stroke="#484848" stroke-linecap="round" stroke-linejoin="round" stroke-miterlimit="4" stroke-width="2" d="M10 67V10"/></g><g id="g-root-keys_1hapzns1cvhypu-stroke" data-item-order="0" transform="translate(117 393)"><path id="keys_1hapzns1cvhypu-stroke" fill="none" stroke="#4e88e7" stroke-linecap="round" stroke-linejoin="round" stroke-miterlimit="4" stroke-width="2" d="M43.75 32.5a13.75 13.75 0 1 0-17.5 13.218v3.032l-2.5 2.5 2.5 2.5v2.5l-2.5 2.5 2.5 2.5V65L30 68.75 33.75 65V45.717a13.75 13.75 0 0 0 10-13.217ZM25 28.745a5 5 0 1 0 10 0 5 5 0 0 0-10 0Zm8.75 18.787a13.767 13.767 0 0 0 13.563.083L50 50v3.75h3.75L55 55.063v3.687h3.292l2.655 2.5h5.303v-5.303L52.615 42.312a13.75 13.75 0 0 0-13.75-20.332M30 27.5V16.25a5 5 0 1 1 10 0v5.633"/></g><g id="g-root-lock_1hhl7m01cvoxs9-stroke" data-item-order="0" transform="translate(285 393)"><path id="lock_1hhl7m01cvoxs9-stroke" fill="none" stroke="#1eabda" stroke-linecap="round" stroke-linejoin="round" stroke-miterlimit="4" stroke-width="2" d="M30.103 49.63a3.75 3.75 0 0 1 1.102 2.655v12.82a3.75 3.75 0 0 1-3.75 3.75h-12.5a3.75 3.75 0 0 1-3.75-3.75V46.98a3.75 3.75 0 0 1 3.75-3.75h7.18c.993 0 1.946.395 2.65 1.095Zm29.942-1.61v3.75m0 7.5v1.875a3.75 3.75 0 0 1-3.75 3.75H54.42m-7.5 0h-5.625m-21.25-30V30.52m0-7.5v-1.875a3.75 3.75 0 0 1 3.75-3.75h1.875m7.5 0h5.625m11.25 3.75h15s3.75 0 3.75 3.75v11.25s0 3.75-3.75 3.75h-15s-3.75 0-3.75-3.75v-11.25s0-3.75 3.75-3.75m7.5-10h0a7.5 7.5 0 0 0-7.5 7.5v2.5h15v-2.5a7.5 7.5 0 0 0-7.5-7.5Zm0 18.51a.937.937 0 1 1 0 1.875.937.937 0 0 1 0-1.875h0"/></g><g id="g-root-pent_4lp8zs1cvrrbd-stroke" data-item-order="0" transform="translate(621 393)"><path id="pent_4lp8zs1cvrrbd-stroke" fill="none" stroke="#92bd39" stroke-linecap="round" stroke-linejoin="round" stroke-miterlimit="4" stroke-width="2" d="M38.535 13.607a2.5 2.5 0 0 1 2.94 0l25.597 18.597A2.5 2.5 0 0 1 67.98 35l-9.778 30.092a2.5 2.5 0 0 1-2.377 1.727h-31.64a2.5 2.5 0 0 1-2.378-1.727L12.03 34.999a2.5 2.5 0 0 1 .908-2.795l25.597-18.597ZM37.615 44.61l11.778-15.77 4.657 3.478M28.94 56.234a7.25 7.25 0 1 0 8.676-11.618 7.25 7.25 0 0 0-8.677 11.618M44.873 34.893l4.658 3.479"/></g><g id="g-root-data_qu1ps81cvt6v8-stroke" data-item-order="0" transform="translate(789 393)"><path id="data_qu1ps81cvt6v8-stroke" fill="none" stroke="#e0cb15" stroke-linecap="round" stroke-linejoin="round" stroke-miterlimit="4" stroke-width="2" d="M21.258 20.003c0 4.142 9.513 7.5 21.25 7.5 11.736 0 21.25-3.358 21.25-7.5 0-4.143-9.514-7.5-21.25-7.5-11.737 0-21.25 3.357-21.25 7.5ZM63.75 30c0 4.142-9.515 7.5-21.25 7.5S21.25 34.145 21.25 30m42.5 10c0 4.142-9.515 7.5-21.25 7.5S21.25 44.142 21.25 40m42.5-20v30c0 4.142-9.515 7.5-21.25 7.5S21.25 54.142 21.25 50V20m-7.5 45.003H37.5m3.758-7.5v3.75m-3.758 3.75a3.75 3.75 0 1 0 7.5 0 3.75 3.75 0 0 0-7.5 0Zm7.5 0h21.25"/></g><g id="g-root-relo_v98qtk1cvqdqf-stroke" data-item-order="0" transform="translate(453 393)"><path id="relo_v98qtk1cvqdqf-stroke" fill="none" stroke="#3cc583" stroke-linecap="round" stroke-linejoin="round" stroke-miterlimit="4" stroke-width="2" d="M62.386 39.998c0-13.671-11.083-24.754-24.754-24.754-13.671 0-24.754 11.083-24.754 24.754 0 13.67 11.083 24.753 24.754 24.753 8.421 0 15.86-4.205 20.332-10.63M57.649 37.627l4.736 4.736 4.736-4.736M35.117 41.69l12.695-12.696 3.75 3.75M25.769 51.053A6.613 6.613 0 1 0 35.12 41.7a6.613 6.613 0 0 0-9.351 9.352M42.942 33.877l3.75 3.75"/></g></g></g></svg>
