<svg xmlns="http://www.w3.org/2000/svg" style="fill:none;stroke:none;fill-rule:evenodd;clip-rule:evenodd;stroke-linecap:round;stroke-linejoin:round;stroke-miterlimit:1.5" viewBox="54.59 97.5 740.64 671"><style data-font-family="Roboto">@import url(https://fonts.googleapis.com/css2?family=Roboto:wght@400;700&amp;display=block);</style><g id="items" style="isolation:isolate"><g id="blend" style="mix-blend-mode:normal"><g id="g-root-tx_compatib_1hdu0e31xorq4g-fill" data-item-order="0" transform="translate(651 87)"><text id="tx_compatib_1hdu0e31xorq4g-fill" fill="#1eabda" stroke="none" font-family="Roboto, sans-serif" font-size="20" font-weight="bold" style="font:700 20px Roboto,sans-serif;white-space:pre"><tspan x="12" y="33.5" dominant-baseline="ideographic">Compatibilité </tspan><tspan x="12" y="57.5" dominant-baseline="ideographic">des </tspan><tspan x="12" y="81.5" dominant-baseline="ideographic">navigateurs</tspan></text></g><g id="g-root-tx_adoption_qrjgqj1xorq4k-fill" data-item-order="0" transform="translate(39 123)"><text id="tx_adoption_qrjgqj1xorq4k-fill" fill="#92bd39" stroke="none" font-family="Roboto, sans-serif" font-size="20" font-weight="bold" style="font:700 20px Roboto,sans-serif;white-space:pre"><tspan x="32.88" y="33.5" dominant-baseline="ideographic">Adoption des </tspan><tspan x="50.79" y="57.5" dominant-baseline="ideographic">utilisateurs</tspan></text></g><g id="g-root-tx_lenombre_hvwghn1xorqx9-fill" data-item-order="0" transform="translate(39 183)"><text id="tx_lenombre_hvwghn1xorqx9-fill" fill="#484848" stroke="none" font-family="Roboto, sans-serif" font-size="15" style="font:15px Roboto,sans-serif;white-space:pre"><tspan x="80.93" y="30.5" dominant-baseline="ideographic">Le nombre </tspan><tspan x="22.75" y="48.5" dominant-baseline="ideographic">d'utilisateurs finaux </tspan><tspan x="15.59" y="66.5" dominant-baseline="ideographic">adoptant WebAuthn.</tspan></text></g><g id="g-root-tx_laprisee_18i70571xorqx5-fill" data-item-order="0" transform="translate(651 171)"><text id="tx_laprisee_18i70571xorqx5-fill" fill="#484848" stroke="none" font-family="Roboto, sans-serif" font-size="15" style="font:15px Roboto,sans-serif;white-space:pre"><tspan x="12" y="27.5" dominant-baseline="ideographic">La prise en charge </tspan><tspan x="12" y="45.5" dominant-baseline="ideographic">généralisée de </tspan><tspan x="12" y="63.5" dominant-baseline="ideographic">WebAuthn par les </tspan><tspan x="12" y="81.5" dominant-baseline="ideographic">navigateurs Web.</tspan></text></g><g id="g-root-tx_adoption_1ltniij1xorpc7-fill" data-item-order="0" transform="translate(357 339)"><text id="tx_adoption_1ltniij1xorpc7-fill" fill="#969696" stroke="none" font-family="Roboto, sans-serif" font-size="20" font-weight="bold" style="font:700 20px Roboto,sans-serif;white-space:pre"><tspan x="13.09" y="33.5" dominant-baseline="ideographic">Adoption de </tspan><tspan x="21.03" y="57.5" dominant-baseline="ideographic">WebAuthn</tspan></text></g><g id="g-root-tx_adoption_dgpfgb1xorojq-fill" data-item-order="0" transform="translate(345 627)"><text id="tx_adoption_dgpfgb1xorojq-fill" fill="#3cc583" stroke="none" font-family="Roboto, sans-serif" font-size="20" font-weight="bold" style="font:700 20px Roboto,sans-serif;white-space:pre"><tspan x="40.76" y="33.5" dominant-baseline="ideographic">Adoption </tspan><tspan x="36.45" y="57.5" dominant-baseline="ideographic">matérielle</tspan></text></g><g id="g-root-tx_letauxda_dgpfgb1xorojr-fill" data-item-order="0" transform="translate(345 687)"><text id="tx_letauxda_dgpfgb1xorojr-fill" fill="#484848" stroke="none" font-family="Roboto, sans-serif" font-size="15" style="font:15px Roboto,sans-serif;white-space:pre"><tspan x="19.99" y="27.5" dominant-baseline="ideographic">Le taux d'adoption </tspan><tspan x="32.17" y="45.5" dominant-baseline="ideographic">des dispositifs </tspan><tspan x="12.53" y="63.5" dominant-baseline="ideographic">matériels prenant en </tspan><tspan x="19.89" y="81.5" dominant-baseline="ideographic">charge WebAuthn.</tspan></text></g><g id="g-root-0.g-0_fr_v48lff1xonifj-stroke" data-item-order="-569224" transform="translate(332.987 278.986)"><path id="0.g-0_fr_v48lff1xonifj-stroke" fill="none" stroke="gray" stroke-linecap="round" stroke-linejoin="round" stroke-miterlimit="4" stroke-width="2" d="m100.884 177.74-6.162-5.952-6.16 6.068c-12.484-.802-24.98-4.417-36.548-11.096C13.527 144.54-.724 96.461 18.537 57.138l7.927-2.124-2.124-7.926c24.424-36.343 73.186-48.04 111.674-25.82 12.006 6.932 21.654 16.38 28.661 27.293l-2.337 8.112 7.861 1.944c11.11 23.965 10.772 52.782-3.439 77.397-14.313 24.791-39.356 39.526-65.876 41.726Z"/></g><g id="g-root-1.g-1_fr_qof3az1xonj7t-stroke" data-item-order="-569218" transform="translate(417.42 123)"><path id="1.g-1_fr_qof3az1xonj7t-stroke" fill="none" stroke="#1eabda" stroke-linecap="round" stroke-linejoin="round" stroke-miterlimit="4" stroke-width="2" d="M249.582 250.159a240 240 0 0 1-32.153 119.84l-72.177-41.671a156.656 156.656 0 0 0 11.046-133.248l-34.014 19.639 6 10.392-50.377-12.453 14.377-49.901 6 10.392 34.497-19.917A156.655 156.655 0 0 0 10 93.342L10.222 10a240 240 0 0 1 239.36 240.159Z"/></g><g id="g-root-2.g-2_fr_qof3az1xonj7v-stroke" data-item-order="-569208" transform="translate(210.017 440.773)"><path id="2.g-2_fr_qof3az1xonj7v-stroke" fill="none" stroke="#3cc583" stroke-linecap="round" stroke-linejoin="round" stroke-miterlimit="4" stroke-width="2" d="M98.144 140.737A240 240 0 0 1 10 53.706L81.877 11.52a156.658 156.658 0 0 0 112.17 75.675V45.118h-12L217.692 10l36.353 35.118h-12v41.749a156.657 156.657 0 0 0 110.677-76.43l72.213 41.608a240 240 0 0 1-326.792 88.692Z"/></g><g id="g-root-3.g-3_fr_m9829n1xongud-stroke" data-item-order="-569200" transform="translate(177.001 123)"><path id="3.g-3_fr_m9829n1xongud-stroke" fill="none" stroke="#92bd39" stroke-linecap="round" stroke-linejoin="round" stroke-miterlimit="4" stroke-width="2" d="M130.088 42.103A240 240 0 0 1 250.74 10.001l-.257 83.342a156.658 156.658 0 0 0-122.551 58.468l35.341 20.404 6-10.392L182.45 211l-49.177 13.177 6-10.392-35.341-20.405a156.657 156.657 0 0 0 10.995 135.974L43.068 371.57a240 240 0 0 1 87.02-329.467Z"/></g><g id="g-root-cons_58x2z1xoqbyc-stroke" data-item-order="0" transform="translate(221.528 240)"><path id="cons_58x2z1xoqbyc-stroke" fill="none" stroke="#92bd39" stroke-linecap="round" stroke-linejoin="round" stroke-miterlimit="4" stroke-width="2" d="M39.612 29.166v13.918a5.612 5.612 0 0 1-11.224 0V29.166h-7.856v14.366c.002 7.437 6.031 13.465 13.468 13.465s13.466-6.028 13.468-13.465V29.166Zm7.856 6.622h-7.856m-11.224 0h-7.856m-1.364-21.24a3.548 3.548 0 1 0 7.096 0 3.548 3.548 0 0 0-7.096 0m11.284 0a3.548 3.548 0 1 0 7.096 0 3.548 3.548 0 0 0-7.096 0M40.146 25.2a6.2 6.2 0 0 0-12.292 0m-2.112-4.546A6.2 6.2 0 0 0 16.57 25.2m25.688-4.546A6.2 6.2 0 0 1 51.43 25.2m-9.694-10.652a3.548 3.548 0 1 0 7.096 0 3.548 3.548 0 0 0-7.096 0"/></g><g id="g-root-chec_htek571xonhmo-stroke" data-item-order="0" transform="translate(561 236.999)"><path id="chec_htek571xonhmo-stroke" fill="none" stroke="#1eabda" stroke-linecap="round" stroke-linejoin="round" stroke-miterlimit="4" stroke-width="2" d="M11 19.008h40m-34-4.5h0m0 0a.5.5 0 1 0 0 1 .5.5 0 0 0 0-1m4 0h0m0 0a.5.5 0 1 0 0 1 .5.5 0 0 0 0-1m4 0h0m0 0a.5.5 0 1 0 0 1 .5.5 0 0 0 0-1M27 43H15a4 4 0 0 1-4-4V15a4 4 0 0 1 4-4h32a4 4 0 0 1 4 4v12M33.002 45.01c0 6.627 5.373 12 12 12s12-5.373 12-12-5.373-12-12-12-12 5.373-12 12Zm17.348-3.49-5.81 7.748a1.5 1.5 0 0 1-2.26.16l-3-3"/></g><g id="g-root-1_dcykxn1xoqccv-stroke" data-item-order="0" transform="translate(393 537)"><path id="1_dcykxn1xoqccv-stroke" fill="none" stroke="#3cc583" stroke-linecap="round" stroke-linejoin="round" stroke-miterlimit="4" stroke-width="2" d="M24 27v1.334M42.634 13A12 12 0 0 0 24 23m24 2.334V23c.004-2.373-.7-4.694-2.02-6.666M48 37v-7.666m-4-2V23a8 8 0 1 0-16 0v14m16 0v-5.666m-12-1V37m8 0V23a4 4 0 0 0-8 0v3.334m4-2.666V37m-12-5v5m13 12H11m13 3.5h0a.5.5 0 0 1 .5.5h0a.5.5 0 0 1-.5.5h0a.5.5 0 0 1-.5-.5h0a.5.5 0 0 1 .5-.5M37 44v9a4 4 0 0 1-4 4H15a4 4 0 0 1-4-4V15a4 4 0 0 1 4-4h7"/></g></g></g></svg>