<svg xmlns="http://www.w3.org/2000/svg" style="fill:none;stroke:none;fill-rule:evenodd;clip-rule:evenodd;stroke-linecap:round;stroke-linejoin:round;stroke-miterlimit:1.5" viewBox="37.03 120 699.81 290"><style data-font-family="Roboto">@import url(https://fonts.googleapis.com/css2?family=Roboto:wght@400;700&amp;display=block);</style><g id="items" style="isolation:isolate"><g id="blend" style="mix-blend-mode:normal"><g id="g-root--1.cu_sy_mb3ed41fnkw07-fill" data-item-order="-110586" transform="translate(327 111)"><path id="-1.cu_sy_mb3ed41fnkw07-fill" fill="#ebebeb" stroke="none" d="M65.767 298C80.755 298 106 233.529 106 154S80.755 10 65.767 10c15.008.008 27.175 64.667 27.175 144S80.775 297.992 65.767 298Zm-.001 0c15.009-.008 27.175-64.667 27.175-144S80.775 10.007 65.766 10H51.957C66.061 15.166 77.2 77.854 77.2 154S65.383 292.834 51.28 298h14.487ZM77.2 154c0 76.146-11.817 138.834-25.92 144h-1.218C35.073 298 10 233.529 10 154S35.073 10 50.062 10h1.896C66.061 15.166 77.2 77.854 77.2 154Z"></path></g><g id="g-root-0.cr-medium_cr_mb3ed41fnkw08-fill" data-item-order="-110582" transform="translate(495 219)"><path id="0.cr-medium_cr_mb3ed41fnkw08-fill" fill="#ebebeb" stroke="none" d="M10 46c0 19.882 16.118 36 36 36s36-16.118 36-36-16.118-36-36-36-36 16.118-36 36"></path></g><g id="g-root-3.cr-small_cr_hv9w8o1fnkwsi-fill" data-item-order="-110574" transform="translate(183 309)"><path id="3.cr-small_cr_hv9w8o1fnkwsi-fill" fill="#d1f4ff" stroke="none" d="M10 40c0 16.569 13.431 30 30 30 16.569 0 30-13.431 30-30 0-16.569-13.431-30-30-30-16.569 0-30 13.431-30 30"></path></g><g id="g-root-2.cr-small_cr_8zmvzs1fnkxl8-fill" data-item-order="-110566" transform="translate(183 225)"><path id="2.cr-small_cr_8zmvzs1fnkxl8-fill" fill="#e9ffb9" stroke="none" d="M10 40c0 16.569 13.431 30 30 30 16.569 0 30-13.431 30-30 0-16.569-13.431-30-30-30-16.569 0-30 13.431-30 30"></path></g><g id="g-root-1.cr-small_cr_8zmvzs1fnkxla-fill" data-item-order="-110558" transform="translate(183 141)"><path id="1.cr-small_cr_8zmvzs1fnkxla-fill" fill="#c8ffe5" stroke="none" d="M10 40c0 16.569 13.431 30 30 30 16.569 0 30-13.431 30-30 0-16.569-13.431-30-30-30-16.569 0-30 13.431-30 30"></path></g><g id="g-root-tx_apijavas_1cz9gfs1fn89vv-fill" data-item-order="0" transform="translate(39 147)"><text id="tx_apijavas_1cz9gfs1fn89vv-fill" fill="#484848" stroke="none" font-family="Roboto, sans-serif" font-size="20" style="font:20px Roboto,sans-serif;white-space:pre"><tspan x="15.56" y="34" dominant-baseline="ideographic">Défini une API </tspan><tspan x="47.59" y="58" dominant-baseline="ideographic">Javascript</tspan></text></g><g id="g-root-tx_authenti_1luwgoo1fn8935-fill" data-item-order="0" transform="translate(15 243)"><text id="tx_authenti_1luwgoo1fn8935-fill" fill="#484848" stroke="none" font-family="Roboto, sans-serif" font-size="20" style="font:20px Roboto,sans-serif;white-space:pre"><tspan x="22.03" y="34" dominant-baseline="ideographic">Authentificateur</tspan></text></g><g id="g-root-tx_authenti_1upwzug1fn8aod-fill" data-item-order="0" transform="translate(579 231)"><text id="tx_authenti_1upwzug1fn8aod-fill" fill="#484848" stroke="none" font-family="Roboto, sans-serif" font-size="20" style="font:20px Roboto,sans-serif;white-space:pre"><tspan x="12" y="34" dominant-baseline="ideographic">Authentification </tspan><tspan x="12" y="58" dominant-baseline="ideographic">Sécurisée</tspan></text></g><g id="g-root-tx_connaiss_1qa3hq01fn8bgn-fill" data-item-order="0" transform="translate(39 315)"><text id="tx_connaiss_1qa3hq01fn8bgn-fill" fill="#484848" stroke="none" font-family="Roboto, sans-serif" font-size="20" style="font:20px Roboto,sans-serif;white-space:pre"><tspan x="14.09" y="34" dominant-baseline="ideographic">Connaissance </tspan><tspan x="45.67" y="58" dominant-baseline="ideographic">ou Identité</tspan></text></g><g id="g-root--1.cu_sy_mb3ed41fnkw07-stroke" data-item-order="-110586" transform="translate(327 111)"><path id="-1.cu_sy_mb3ed41fnkw07-stroke" fill="none" stroke="#fff" stroke-linecap="round" stroke-linejoin="round" stroke-miterlimit="4" stroke-width="2" d="M65.767 298C80.755 298 106 233.529 106 154S80.755 10 65.767 10c15.008.008 27.175 64.667 27.175 144S80.775 297.993 65.767 298Zm-.001 0c15.009-.007 27.175-64.667 27.175-144S80.775 10.007 65.766 10H51.957C66.061 15.166 77.2 77.854 77.2 154S65.383 292.834 51.28 298h14.487ZM77.2 154c0 76.146-11.817 138.834-25.92 144h-1.218C35.073 298 10 233.529 10 154S35.073 10 50.062 10h1.896C66.061 15.166 77.2 77.854 77.2 154Z"></path></g><g id="g-root-0.cr-medium_cr_mb3ed41fnkw08-stroke" data-item-order="-110582" transform="translate(495 219)"><path id="0.cr-medium_cr_mb3ed41fnkw08-stroke" fill="none" stroke="#fff" stroke-linecap="round" stroke-linejoin="round" stroke-miterlimit="4" stroke-width="2" d="M10 46c0 19.882 16.118 36 36 36s36-16.118 36-36-16.118-36-36-36-36 16.118-36 36"></path></g><g id="g-root-3.line_sy_hv9w8o1fnkwsh-stroke" data-item-order="-110575" transform="translate(243.11 279)"><g id="3.line_sy_hv9w8o1fnkwsh-stroke" fill="none" stroke="#1ac6ff" stroke-linecap="round" stroke-linejoin="round" stroke-miterlimit="4" stroke-width="2"><path d="M254.08 10.86 129.89 70H10"></path><path d="m251.5 19.26 3-8.6-8.6-3.1"></path></g></g><g id="g-root-3.cr-small_cr_hv9w8o1fnkwsi-stroke" data-item-order="-110574" transform="translate(183 309)"><path id="3.cr-small_cr_hv9w8o1fnkwsi-stroke" fill="none" stroke="#fff" stroke-linecap="round" stroke-linejoin="round" stroke-miterlimit="4" stroke-width="2" d="M10 40c0 16.569 13.431 30 30 30 16.569 0 30-13.431 30-30 0-16.569-13.431-30-30-30-16.569 0-30 13.431-30 30"></path></g><g id="g-root-2.line_sy_8zmvzs1fnkxl7-stroke" data-item-order="-110567" transform="translate(243 255)"><g id="2.line_sy_8zmvzs1fnkxl7-stroke" fill="none" stroke="#a8dd38" stroke-linecap="round" stroke-linejoin="round" stroke-miterlimit="4" stroke-width="2"><path d="M248 10H10M242 16.5l6.5-6.5-6.5-6.5"></path></g></g><g id="g-root-2.cr-small_cr_8zmvzs1fnkxl8-stroke" data-item-order="-110566" transform="translate(183 225)"><path id="2.cr-small_cr_8zmvzs1fnkxl8-stroke" fill="none" stroke="#fff" stroke-linecap="round" stroke-linejoin="round" stroke-miterlimit="4" stroke-width="2" d="M10 40c0 16.569 13.431 30 30 30 16.569 0 30-13.431 30-30 0-16.569-13.431-30-30-30-16.569 0-30 13.431-30 30"></path></g><g id="g-root-1.line_sy_8zmvzs1fnkxl9-stroke" data-item-order="-110559" transform="translate(243 171)"><g id="1.line_sy_8zmvzs1fnkxl9-stroke" fill="none" stroke="#44e095" stroke-linecap="round" stroke-linejoin="round" stroke-miterlimit="4" stroke-width="2"><path d="M254.19 69.14 130 10H10"></path><path d="m246 72.4 8.6-3-3-8.7"></path></g></g><g id="g-root-1.cr-small_cr_8zmvzs1fnkxla-stroke" data-item-order="-110558" transform="translate(183 141)"><path id="1.cr-small_cr_8zmvzs1fnkxla-stroke" fill="none" stroke="#fff" stroke-linecap="round" stroke-linejoin="round" stroke-miterlimit="4" stroke-width="2" d="M10 40c0 16.569 13.431 30 30 30 16.569 0 30-13.431 30-30 0-16.569-13.431-30-30-30-16.569 0-30 13.431-30 30"></path></g><g id="g-root-1_v3m4c81fn6upt-stroke" data-item-order="0" transform="translate(195 153)"><path id="1_v3m4c81fn6upt-stroke" fill="none" stroke="#3cc583" stroke-linecap="round" stroke-linejoin="round" stroke-miterlimit="4" stroke-width="2" d="M27.313 45.25h-15a1.5 1.5 0 0 1-1.5-1.5v-31.5a1.5 1.5 0 0 1 1.5-1.5h19.94a1.5 1.5 0 0 1 1.06.45l5.56 5.55a1.5 1.5 0 0 1 .44 1.06v4.94m-19.5-2.244-4.5 4.5 4.5 4.5m4.5-9 4.5 4.5-4.5 4.5m9 3.75h10.5s1.5 0 1.5 1.5v8.999s0 1.5-1.5 1.5h-10.5s-1.5 0-1.5-1.5v-8.999s0-1.5 1.5-1.5m3.375 6.094a1.875 1.875 0 1 0 3.75 0 1.875 1.875 0 0 0-3.75 0M42.313 31a3.75 3.75 0 1 0-7.5 0v2.25h7.5Z"></path></g><g id="g-root-obje_924sc81fnqi31-stroke" data-item-order="0" transform="translate(195 237)"><path id="obje_924sc81fnqi31-stroke" fill="none" stroke="#92bd39" stroke-linecap="round" stroke-linejoin="round" stroke-miterlimit="4" stroke-width="2" d="m35.093 23.002-2.615-2.058-6.265 7.959M32.23 26.638l-2.615-2.059m-7.52 9.554a3.329 3.329 0 1 0 4.119-5.23 3.329 3.329 0 0 0-4.119 5.23M40.636 40.637H15.36V15.362h25.275v25.275ZM15.364 15.364h-4.093v-4.093h4.093v4.093Zm0 29.365h-4.093v-4.093h4.093v4.093ZM15.364 30.047h-4.093v-4.094h4.093v4.094Zm29.364-14.683h-4.093v-4.093h4.093v4.093Zm0 14.683h-4.093v-4.094h4.093v4.094ZM44.728 44.729h-4.093v-4.093h4.093v4.093ZM30.045 15.364h-4.092v-4.092h4.092v4.092Zm0 29.365h-4.092v-4.092h4.092v4.092Z"></path></g><g id="g-root-lock_4jtdvc1fnkydj-stroke" data-item-order="0" transform="translate(507 231)"><path id="lock_4jtdvc1fnkydj-stroke" fill="none" stroke="#969696" stroke-linecap="round" stroke-linejoin="round" stroke-miterlimit="4" stroke-width="2" d="M11 45.002v-30m4 8v14m4-16v18m4-20v22m4-24v26m24-14.008V15.002m-4 8v5.964m-4-7.964v8.984m-4-10.984V36.99m-4-19.988v26m-4-32v38m10-8h14s2 0 2 2V55s0 2-2 2H41s-2 0-2-2V43.002s0-2 2-2m4.5 8.124a2.5 2.5 0 1 0 5 0 2.5 2.5 0 0 0-5 0M53 38a5 5 0 0 0-10 0v3h10Z"></path></g><g id="g-root-1_1q6z14o1fnp4b0-stroke" data-item-order="0" transform="translate(195 321)"><path id="1_1q6z14o1fnp4b0-stroke" fill="none" stroke="#1eabda" stroke-linecap="round" stroke-linejoin="round" stroke-miterlimit="4" stroke-width="2" d="M21.095 44.591v-8.14a12.168 12.168 0 0 1-2.846-3.976m16.487 12.116v-3.897h1.949a3.898 3.898 0 0 0 3.897-3.898V32.9h2.469a.976.976 0 0 0 .909-1.325C41.012 23.927 39.1 17.028 32.15 15.62M20.459 28.377a8.484 8.484 0 1 0 0-16.968 8.484 8.484 0 0 0 0 16.968ZM26.662 25.7l5.075 5.006M18.11 17.337c0-1.235.989-2.348 2.348-2.348 1.236 0 2.348.989 2.348 2.348 0 1.236-.988 2.348-2.348 2.348v1.043m0 3.423a.347.347 0 0 0-.323.323c0 .162.162.323.323.323m0-.646c.162 0 .323.162.323.323a.347.347 0 0 1-.323.323"></path></g></g></g></svg>
